<?xml version="1.0" encoding="UTF-8"?>
<svg width="16px" height="19px" viewBox="0 0 16 19" version="1.1" xmlns="http://www.w3.org/2000/svg" xmlns:xlink="http://www.w3.org/1999/xlink">
    <!-- Generator: Sketch 46.2 (44496) - http://www.bohemiancoding.com/sketch -->
    <title>Path</title>
    <desc>Created with Sketch.</desc>
    <defs></defs>
    <g id="Landing" stroke="none" stroke-width="1" fill="none" fill-rule="evenodd" opacity="0.300000012">
        <g id="1440" transform="translate(-177.000000, -3829.000000)" fill="#4C5661">
            <g id="//-footer" transform="translate(0.000000, 3156.000000)">
                <g id="::-social" transform="translate(137.000000, 672.000000)">
                    <g id="Path">
                        <path d="M40.0529587,12.6516408 C39.9823471,12.5810292 39.9823471,12.5104175 40.0529587,12.4398059 C40.1941549,12.2985826 40.3707112,12.2456239 40.582519,12.2809297 C40.7943539,12.3162355 40.9179243,12.3515413 40.9532302,12.3868472 C41.2003709,12.4927646 41.4740046,12.7310654 41.774077,13.1018037 C42.0741494,13.4725148 42.3124773,13.7284685 42.4890335,13.8696918 C43.3363733,14.5758083 44.2013389,14.628767 45.0839845,14.028568 C45.1545962,13.7814272 45.2693537,13.5695923 45.4282028,13.393036 C45.5870519,13.2165069 45.7371423,13.0929636 45.8783656,13.0223249 C46.019616,12.9517132 46.2667568,12.8457958 46.619815,12.7045725 C45.4546957,12.598655 44.5102784,12.3956329 43.786509,12.0955334 C43.0627396,11.7954339 42.4890064,11.4159099 42.0653365,10.9569341 C41.5004433,10.3214293 41.156198,9.49174241 41.0326276,8.46787349 C40.9090301,7.44400457 40.9884817,6.50840022 41.2709555,5.66106042 C41.4827904,5.13147305 41.7828899,4.65487153 42.1712269,4.23117452 C41.8887803,3.3485289 41.941739,2.3423129 42.3301031,1.2125265 C43.4598895,1.28313815 44.4837584,1.67150223 45.4017098,2.37761872 C47.1670011,1.918643 49.002904,1.90099009 50.9093914,2.32465998 C51.1565322,2.14813086 51.5360833,1.92748301 52.0479907,1.66266221 C52.5599251,1.39786853 53.20427,1.24780521 53.9809981,1.21249939 C54.1222214,1.60086346 54.219326,2.05983918 54.2722847,2.58942655 C54.3252435,3.11901392 54.2987777,3.61329547 54.1928602,4.07227119 C55.0048671,4.91961099 55.4285369,6.04939738 55.4638428,7.46163037 C55.4638428,8.59141676 55.2696879,9.52702112 54.8813238,10.2684434 C54.4929597,11.0098658 53.8044961,11.6277177 52.815933,12.1219721 C52.1451224,12.4397517 51.2624767,12.6339066 50.1679962,12.7045182 C50.6623048,12.951659 51.024176,13.2076398 51.2536638,13.4724335 C51.4831788,13.7372272 51.633215,14.152057 51.7038538,14.7169502 L51.7038538,16.3851911 L51.7567854,18.0004191 C51.8627029,18.1769753 51.9863004,18.3270115 52.1275237,18.450609 C52.268747,18.5741794 52.3923174,18.6624439 52.4982348,18.7154027 C52.6041252,18.7683614 52.6394581,18.8478131 52.6041252,18.9537306 C52.5688194,19.059648 52.4275961,19.1126068 52.1804824,19.1126068 C51.5802563,19.1126068 51.1036548,18.9007718 50.7505965,18.4770748 C50.644679,18.3005457 50.5917203,18.0887378 50.5917203,17.84157 L50.5917203,15.2995506 C50.5917203,15.017104 50.5211087,14.8140819 50.3798854,14.6905115 C50.2386621,14.566914 50.0974388,14.4874895 49.9562155,14.4521837 L49.9562155,17.7885841 C49.9562155,18.3887831 50.0268271,18.7771472 50.1680504,18.9536763 C50.3092737,19.1302054 50.3975383,19.3067617 50.4328712,19.4832637 C50.468177,19.5185695 50.4416841,19.5450353 50.3534195,19.5626882 C50.2651821,19.580314 50.1151188,19.5538753 49.9032567,19.4832637 C49.444281,19.3773462 49.1265286,19.1390183 48.9499995,18.7683072 C48.7734703,18.397596 48.6852058,18.0003919 48.6852058,17.576722 L48.6852058,14.2933617 L47.9967422,14.2933617 L47.9967422,17.5768034 C47.9967422,18.0004733 47.9084505,18.4065174 47.7319214,18.7948543 C47.4848077,19.289163 47.0258049,19.5539296 46.3550213,19.5892354 C46.2491039,19.5539296 46.1961451,19.5186238 46.1961451,19.483345 C46.231451,19.4480121 46.3373684,19.2715101 46.5138975,18.9537577 C46.5492034,18.883146 46.5933492,18.7419227 46.646308,18.5300878 C46.6992938,18.3182528 46.7257596,18.0711121 46.7257596,17.7886655 L46.7257596,14.4522379 C46.5845363,14.4875437 46.4521259,14.5669683 46.3285555,14.6905658 C46.2049851,14.8141633 46.1431864,15.0171582 46.1431864,15.2996048 L46.1431864,17.8416242 C46.1431864,18.0887378 46.0902277,18.3005999 45.9843102,18.477129 C45.6665578,18.9007989 45.1899291,19.112661 44.5544514,19.112661 C44.3073106,19.112661 44.1660873,19.0597023 44.1307815,18.9537848 C44.0954486,18.8831731 44.1042886,18.8213744 44.1572744,18.7684157 C44.2102603,18.7154569 44.2896848,18.6536582 44.3956023,18.5830465 C44.5015198,18.5124349 44.5721314,18.459449 44.6074372,18.4241703 C44.7486605,18.3182528 44.8545509,18.1770295 44.9251897,18.0005004 C45.0311071,17.8592771 45.057573,17.4885659 45.0046142,16.8883669 C44.9516555,16.2881679 44.9428155,15.8998038 44.9781213,15.7232747 C44.0601427,16.0410271 43.1245655,15.8821238 42.1712811,15.2466461 C41.8888345,14.9641995 41.6063879,14.5581554 41.3239413,14.0285951 C41.1121064,13.6402039 40.6884365,13.1812282 40.0529587,12.6516408 Z"></path>
                    </g>
                </g>
            </g>
        </g>
    </g>
</svg>