<?xml version="1.0" encoding="UTF-8"?>
<svg width="109px" height="28px" viewBox="0 0 109 28" version="1.1" xmlns="http://www.w3.org/2000/svg" xmlns:xlink="http://www.w3.org/1999/xlink">
    <!-- Generator: Sketch 46.2 (44496) - http://www.bohemiancoding.com/sketch -->
    <title>Page 1</title>
    <desc>Created with Sketch.</desc>
    <defs>
        <polygon id="path-1" points="20.5034644 27.4071229 0.00352377295 27.4071229 0.00352377295 0.0736468546 20.5034644 0.0736468546 20.5034644 27.4071229"></polygon>
        <polygon id="path-3" points="20.4998232 27.4071229 7.83060655e-05 27.4071229 7.83060655e-05 0.0736468546 20.4998232 0.0736468546"></polygon>
        <polygon id="path-5" points="12.1706419 26.0367668 24.1836537 26.0367668 24.1836537 0.0698881635 0.15763011 0.0698881635 0.15763011 26.0367668 12.1706419 26.0367668"></polygon>
        <polygon id="path-7" points="0.0328102414 27.4071229 21.8995833 27.4071229 21.8995833 0.0736077016 0.0328102414 0.0736077016 0.0328102414 27.4071229"></polygon>
    </defs>
    <g id="Landing" stroke="none" stroke-width="1" fill="none" fill-rule="evenodd">
        <g id="1440" transform="translate(-40.000000, -34.000000)">
            <g id="//-nav" transform="translate(40.000000, 28.000000)">
                <g id="Page-1" transform="translate(0.000000, 6.000000)">
                    <g id="Group-3" transform="translate(34.846199, 0.122157)">
                        <mask id="mask-2" fill="white">
                            <use xlink:href="#path-1"></use>
                        </mask>
                        <g id="Clip-2"></g>
                        <path d="M10.2532005,15.7902615 C7.23430586,15.7902615 4.78645825,13.3426097 4.78645825,10.3235193 C4.78645825,7.30442894 7.23430586,4.85658133 10.2532005,4.85658133 C13.2726823,4.85658133 15.7201384,7.30442894 15.7201384,10.3235193 C15.7201384,11.6177228 15.269487,12.8062131 14.5177488,13.7429494 L14.5144208,13.7404045 L14.4766381,13.7946314 C13.4741247,15.0132696 11.9545955,15.7902615 10.2532005,15.7902615 M10.2532005,0.0736468546 C4.59265074,0.0736468546 0.00352377295,4.66277382 0.00352377295,10.3235193 C0.00352377295,15.8374409 4.35812408,20.3326006 9.81546954,20.5624289 L5.10085711,27.4071621 L10.9086222,27.4071621 L18.3410424,16.615999 C19.6947585,14.8791704 20.5034644,12.6963888 20.5034644,10.3235193 C20.5034644,4.66277382 15.9143375,0.0736468546 10.2532005,0.0736468546" id="Fill-1" fill="#231F20" mask="url(#mask-2)"></path>
                    </g>
                    <g id="Group-6" transform="translate(0.000000, 0.122157)">
                        <mask id="mask-4" fill="white">
                            <use xlink:href="#path-3"></use>
                        </mask>
                        <g id="Clip-5"></g>
                        <path d="M10.249755,15.7902615 C7.23066463,15.7902615 4.78301279,13.3426097 4.78301279,10.3235193 C4.78301279,7.30442894 7.23066463,4.85658133 10.249755,4.85658133 C13.2690411,4.85658133 15.7166929,7.30442894 15.7166929,10.3235193 C15.7166929,11.6177228 15.2658458,12.8062131 14.5141075,13.7429494 L14.5107795,13.7404045 L14.4731926,13.7946314 C13.4706792,15.0132696 11.95115,15.7902615 10.249755,15.7902615 M10.249755,0.0736468546 C4.58920527,0.0736468546 7.83060655e-05,4.66277382 7.83060655e-05,10.3235193 C7.83060655e-05,15.8374409 4.35428708,20.3326006 9.81143678,20.5624289 L5.09702011,27.4071621 L10.9051768,27.4071621 L18.337597,16.615999 C19.6913131,14.8791704 20.4998232,12.6963888 20.4998232,10.3235193 C20.4998232,4.66277382 15.9106962,0.0736468546 10.249755,0.0736468546" id="Fill-4" fill="#231F20" mask="url(#mask-4)"></path>
                    </g>
                    <polygon id="Fill-7" fill="#231F20" points="25.2831492 27.5292804 30.0664752 27.5292804 30.0664752 0.195765164 25.2831492 7.02914397"></polygon>
                    <polygon id="Fill-9" fill="#55B847" points="50.5662984 27.5292804 55.3498202 27.5292804 55.3498202 20.6959016 50.5662984 27.5288889"></polygon>
                    <g id="Group-13" transform="translate(84.179020, 1.492514)">
                        <mask id="mask-6" fill="white">
                            <use xlink:href="#path-5"></use>
                        </mask>
                        <g id="Clip-12"></g>
                        <polygon id="Fill-11" fill="#231F20" mask="url(#mask-6)" points="24.1836929 26.0367668 15.0665177 12.7523385 23.78766 0.0698881635 17.9793076 0.0698881635 12.1707594 8.53359925 6.36201544 0.0698881635 0.554054566 0.0698881635 9.27500108 12.7523385 0.15763011 26.0367668 5.96578675 26.0367668 12.1707594 16.9724482 18.3755362 26.0367668"></polygon>
                    </g>
                    <g id="Group-16" transform="translate(60.099905, 0.122157)">
                        <mask id="mask-8" fill="white">
                            <use xlink:href="#path-7"></use>
                        </mask>
                        <g id="Clip-15"></g>
                        <polygon id="Fill-14" fill="#231F20" mask="url(#mask-8)" points="10.9659031 15.9222659 0.0328102414 0.073509819 0.0328102414 27.4072208 4.81594049 27.4072208 4.81594049 15.4250224 7.89141121 19.8904258 8.23282565 19.8904258 13.6997636 19.8904258 14.0405908 19.8904258 17.116453 15.4250224 17.116453 27.4072208 21.8995833 27.4072208 21.8995833 0.073509819"></polygon>
                    </g>
                </g>
            </g>
        </g>
    </g>
</svg>