<svg width="109" height="28" viewBox="0 0 109 28" xmlns="http://www.w3.org/2000/svg" xmlns:xlink="http://www.w3.org/1999/xlink"><title>Page 1</title><defs><path id="a" d="M20.503 27.407H.004V.074h20.499v27.333z"/><path id="c" d="M20.5 27.407H0V.074h20.5z"/><path id="e" d="M12.171 26.037h12.013V.07H.158v25.967h12.013z"/><path id="g" d="M.033 27.407H21.9V.074H.033v27.333z"/></defs><g fill="none" fill-rule="evenodd"><g transform="translate(34.846 .122)"><mask id="b" fill="#fff"><use xlink:href="#a"/></mask><path d="M10.253 15.79a5.467 5.467 0 1 1 4.265-2.047l-.004-.003-.037.055a5.455 5.455 0 0 1-4.224 1.995m0-15.716C4.593.074.003 4.663.003 10.324c0 5.513 4.355 10.009 9.812 10.238l-4.714 6.845h5.808l7.432-10.791a10.2 10.2 0 0 0 2.162-6.292c0-5.661-4.589-10.25-10.25-10.25" fill="#231F20" mask="url(#b)"/></g><g transform="translate(0 .122)"><mask id="d" fill="#fff"><use xlink:href="#c"/></mask><path d="M10.25 15.79a5.467 5.467 0 1 1 4.264-2.047l-.003-.003-.038.055a5.455 5.455 0 0 1-4.223 1.995m0-15.716C4.59.074 0 4.663 0 10.324c0 5.513 4.354 10.009 9.811 10.238l-4.714 6.845h5.808l7.433-10.791a10.2 10.2 0 0 0 2.162-6.292c0-5.661-4.59-10.25-10.25-10.25" fill="#231F20" mask="url(#d)"/></g><path fill="#231F20" d="M25.283 27.529h4.783V.196l-4.783 6.833z"/><path fill="#55B847" d="M50.566 27.529h4.784v-6.833l-4.784 6.833z"/><g transform="translate(84.179 1.493)"><mask id="f" fill="#fff"><use xlink:href="#e"/></mask><path fill="#231F20" mask="url(#f)" d="M24.184 26.037l-9.117-13.285L23.788.07h-5.809l-5.808 8.464L6.362.07H.554l8.721 12.682L.158 26.037h5.808l6.205-9.065 6.205 9.065z"/></g><g transform="translate(60.1 .122)"><mask id="h" fill="#fff"><use xlink:href="#g"/></mask><path fill="#231F20" mask="url(#h)" d="M10.966 15.922L.033.074v27.333h4.783V15.425l3.075 4.465H14.041l3.075-4.465v11.982H21.9V.074z"/></g></g></svg>