<?xml version="1.0" encoding="UTF-8"?>
<svg width="24px" height="19px" viewBox="0 0 24 19" version="1.1" xmlns="http://www.w3.org/2000/svg" xmlns:xlink="http://www.w3.org/1999/xlink">
    <!-- Generator: Sketch 48.2 (47327) - http://www.bohemiancoding.com/sketch -->
    <title>Fill 1</title>
    <desc>Created with Sketch.</desc>
    <defs></defs>
    <g id="Org_page" stroke="none" stroke-width="1" fill="none" fill-rule="evenodd" transform="translate(-1262.000000, -211.000000)">
        <g id="//-hero" transform="translate(141.000000, 180.000000)" fill="#FFFFFF">
            <g id="::-contacto" transform="translate(923.000000, 0.000000)">
                <g id="::-email" transform="translate(170.000000, 0.000000)">
                    <path d="M40,39.5792927 L49.1247495,32.4616427 L30.8737475,32.4616427 L40,39.5792927 Z M29.5,47.8077053 C29.5,48.2110876 29.8336673,48.5384702 30.25,48.5384702 L49.75,48.5384702 C50.1648297,48.5384702 50.5,48.2110876 50.5,47.8077053 L50.5,33.2187151 L40.5531062,40.9765152 C40.5425852,40.9867459 40.5485972,41.0042842 40.5365731,41.0145149 C40.3892786,41.1592064 40.1938878,41.2235137 40,41.2191291 C39.8046092,41.2235137 39.6092184,41.1592064 39.4634269,41.0145149 C39.4514028,41.0042842 39.4574148,40.9867459 39.4453908,40.9765152 L29.5,33.2187151 L29.5,47.8077053 Z M52,49.2692351 C52,49.6726173 51.6648297,50 51.25,50 L28.75,50 C28.3336673,50 28,49.6726173 28,49.2692351 L28,31.7308778 C28,31.7250317 28.003006,31.7221086 28.003006,31.7162625 C28.003006,31.7060318 28.007515,31.6987242 28.007515,31.689955 C28.0165331,31.518956 28.0856713,31.3669569 28.1953908,31.248573 C28.2074148,31.2354192 28.2014028,31.2134963 28.2149299,31.201804 C28.2314629,31.1857272 28.258517,31.1915733 28.2750501,31.176958 C28.3862725,31.0848817 28.5245491,31.027882 28.6793587,31.0147282 C28.7079158,31.0118052 28.7304609,30.9986514 28.759018,31.0001129 L51.240982,31.0001129 C51.2695391,30.9986514 51.2920842,31.0118052 51.3191383,31.0147282 C51.4754509,31.027882 51.6122244,31.0848817 51.7249499,31.176958 C51.741483,31.1915733 51.7685371,31.1857272 51.7850701,31.201804 C51.7985972,31.2134963 51.7925852,31.2354192 51.8046092,31.248573 C51.9143287,31.3669569 51.9819639,31.518956 51.992485,31.689955 C51.992485,31.6987242 51.996994,31.7060318 51.996994,31.7162625 C51.996994,31.7221086 52,31.7250317 52,31.7308778 L52,49.2692351 Z" id="Fill-1"></path>
                </g>
            </g>
        </g>
    </g>
</svg>