<?xml version="1.0" encoding="UTF-8"?>
<svg width="24px" height="19px" viewBox="0 0 24 19" version="1.1" xmlns="http://www.w3.org/2000/svg" xmlns:xlink="http://www.w3.org/1999/xlink">
    <!-- Generator: Sketch 48.2 (47327) - http://www.bohemiancoding.com/sketch -->
    <title>Fill 1</title>
    <desc>Created with Sketch.</desc>
    <defs></defs>
    <g id="Org-Detail-(375)" stroke="none" stroke-width="1" fill="none" fill-rule="evenodd" transform="translate(-265.000000, -815.000000)">
        <g id="//-hero" transform="translate(-38.000000, 145.000000)" fill="#3DC59F">
            <g id="::-contact" transform="translate(98.000000, 667.000000)">
                <path d="M217,11.5792927 L226.124749,4.46164271 L207.873747,4.46164271 L217,11.5792927 Z M206.5,19.8077053 C206.5,20.2110876 206.833667,20.5384702 207.25,20.5384702 L226.75,20.5384702 C227.16483,20.5384702 227.5,20.2110876 227.5,19.8077053 L227.5,5.21871513 L217.553106,12.9765152 C217.542585,12.9867459 217.548597,13.0042842 217.536573,13.0145149 C217.389279,13.1592064 217.193888,13.2235137 217,13.2191291 C216.804609,13.2235137 216.609218,13.1592064 216.463427,13.0145149 C216.451403,13.0042842 216.457415,12.9867459 216.445391,12.9765152 L206.5,5.21871513 L206.5,19.8077053 Z M229,21.2692351 C229,21.6726173 228.66483,22 228.25,22 L205.75,22 C205.333667,22 205,21.6726173 205,21.2692351 L205,3.73087782 C205,3.72503171 205.003006,3.72210865 205.003006,3.71626253 C205.003006,3.70603182 205.007515,3.69872417 205.007515,3.68995499 C205.016533,3.51895601 205.085671,3.36695691 205.195391,3.248573 C205.207415,3.23541923 205.201403,3.21349628 205.21493,3.20180405 C205.231463,3.18572722 205.258517,3.19157334 205.27505,3.17695804 C205.386273,3.08488166 205.524549,3.027882 205.679359,3.01472823 C205.707916,3.01180518 205.730461,2.99865141 205.759018,3.00011294 L228.240982,3.00011294 C228.269539,2.99865141 228.292084,3.01180518 228.319138,3.01472823 C228.475451,3.027882 228.612224,3.08488166 228.72495,3.17695804 C228.741483,3.19157334 228.768537,3.18572722 228.78507,3.20180405 C228.798597,3.21349628 228.792585,3.23541923 228.804609,3.248573 C228.914329,3.36695691 228.981964,3.51895601 228.992485,3.68995499 C228.992485,3.69872417 228.996994,3.70603182 228.996994,3.71626253 C228.996994,3.72210865 229,3.72503171 229,3.73087782 L229,21.2692351 Z" id="Fill-1"></path>
            </g>
        </g>
    </g>
</svg>