<?xml version="1.0" encoding="UTF-8"?>
<svg width="46px" height="70px" viewBox="0 0 46 70" version="1.1" xmlns="http://www.w3.org/2000/svg" xmlns:xlink="http://www.w3.org/1999/xlink">
    <!-- Generator: Sketch 49 (51002) - http://www.bohemiancoding.com/sketch -->
    <title>empty-thumbnail</title>
    <desc>Created with Sketch.</desc>
    <defs></defs>
    <g id="Page-1" stroke="none" stroke-width="1" fill="none" fill-rule="evenodd">
        <g id="empty-thumbnail" transform="translate(-1.000000, -3.000000)">
            <g id="Group" opacity="0.149999991" transform="translate(9.000000, 0.000000)">
                <path d="M20,24.999994 C20,27.209133 18.209139,28.999994 16,28.999994 C13.790861,28.999994 12,27.209133 12,24.999994 C12,22.790855 13.790861,20.999994 16,20.999994 C18.209139,20.999994 20,22.790855 20,24.999994 Z M32,16.9999931 L32,33.9999913 C32,35.6568454 30.6568542,36.999991 29,36.999991 L3,36.999991 C1.34314575,36.999991 1.48029737e-16,35.6568454 0,33.9999913 L0,16.9999931 C-1.48029737e-16,15.3431391 1.34314575,13.9999934 3,13.9999934 L7,13.9999934 L8.24333333,10.8866604 C8.69927493,9.74580702 9.80474612,8.99826028 11.0333333,8.99999398 L20.9666667,8.99999398 C22.1940385,8.99962528 23.297842,9.74693715 23.7533333,10.8866604 L25,13.9999934 L29,13.9999934 C30.6568542,13.9999934 32,15.3431391 32,16.9999931 Z M24,24.999994 C24,20.581716 20.418278,16.999994 16,16.999994 C11.581722,16.999994 8,20.581716 8,24.999994 C8,29.418272 11.581722,32.999994 16,32.999994 C20.418278,32.999994 24,29.418272 24,24.999994 Z" id="Shape" fill="#000000" fill-rule="nonzero"></path>
                <g id="Rectangle-2" transform="translate(26.449747, 14.378680) rotate(-45.000000) translate(-26.449747, -14.378680) translate(16.949747, 4.878680)">
                    <g id="path-1-link" transform="translate(1.000000, 2.000000)" fill="#000000">
                        <polygon id="path-1" points="10.3738817 5.45454545 15.8284271 5.45454545 15.8284271 9.5454545 10.3738817 9.5454545 10.3738817 15 6.2829726 15 6.2829726 9.5454545 0.8284271 9.5454545 0.8284271 5.45454545 6.2829726 5.45454545 6.2829726 0 10.3738817 0"></polygon>
                    </g>
                    <polygon id="Shape" stroke="#EDF1F5" stroke-width="3" points="12.8738817 5.95454545 18.3284271 5.95454545 18.3284271 13.0454545 12.8738817 13.0454545 12.8738817 18.5 5.7829726 18.5 5.7829726 13.0454545 0.3284271 13.0454545 0.3284271 5.95454545 5.7829726 5.95454545 5.7829726 0.5 12.8738817 0.5"></polygon>
                </g>
            </g>
            <g id="NO-HAY-FOTO" opacity="0.300000012" transform="translate(0.000000, 44.000000)" fill="#000000">
                <path d="M7.08599998,3.54 L8.00999998,3.54 L8.00999998,12 L7.25399998,12 L2.15399998,5.196 L2.15399998,12 L1.22999998,12 L1.22999998,3.54 L1.98599998,3.54 L7.08599998,10.344 L7.08599998,3.54 Z M11.592,11.568 C11.0119971,11.2159982 10.5660015,10.7160032 10.254,10.068 C9.94199842,9.41999676 9.78599998,8.6560044 9.78599998,7.776 C9.78599998,6.88799556 9.93999844,6.11800326 10.248,5.466 C10.5560015,4.81399674 10.9999971,4.31400174 11.58,3.966 C12.1600029,3.61799826 12.845996,3.444 13.638,3.444 C14.4300039,3.444 15.1159971,3.61799826 15.696,3.966 C16.2760029,4.31400174 16.7199984,4.81399674 17.028,5.466 C17.3360015,6.11800326 17.49,6.8839956 17.49,7.764 C17.49,8.6440044 17.3340015,9.40999674 17.022,10.062 C16.7099984,10.7140033 16.2640029,11.2159982 15.684,11.568 C15.1039971,11.9200018 14.4220039,12.096 13.638,12.096 C12.8539961,12.096 12.1720029,11.9200018 11.592,11.568 Z M15.732,10.35 C16.2320025,9.74599698 16.482,8.8840056 16.482,7.764 C16.482,6.6439944 16.2340025,5.784003 15.738,5.184 C15.2419975,4.583997 14.5420045,4.284 13.638,4.284 C12.7419955,4.284 12.0440025,4.58599698 11.544,5.19 C11.0439975,5.79400302 10.794,6.65199444 10.794,7.764 C10.794,8.87600556 11.0439975,9.73599696 11.544,10.344 C12.0440025,10.952003 12.7419955,11.256 13.638,11.256 C14.5340045,11.256 15.2319975,10.954003 15.732,10.35 Z M28.398,3.54 L29.37,3.54 L29.37,12 L28.398,12 L28.398,8.124 L23.334,8.124 L23.334,12 L22.362,12 L22.362,3.54 L23.334,3.54 L23.334,7.284 L28.398,7.284 L28.398,3.54 Z M37.926,12 L36.99,9.828 L32.574,9.828 L31.638,12 L30.63,12 L34.35,3.54 L35.202,3.54 L38.922,12 L37.926,12 Z M32.922,9.012 L36.642,9.012 L34.782,4.68 L32.922,9.012 Z M45.618,3.54 L42.294,8.004 L42.294,12 L41.31,12 L41.31,7.992 L37.986,3.54 L39.126,3.54 L41.814,7.188 L44.502,3.54 L45.618,3.54 Z" id="NO-HAY"></path>
                <path d="M8.76999999,28 L8.76999999,19.54 L14.002,19.54 L14.002,20.368 L9.74199999,20.368 L9.74199999,23.284 L13.762,23.284 L13.762,24.112 L9.74199999,24.112 L9.74199999,28 L8.76999999,28 Z M16.756,27.568 C16.1759971,27.2159982 15.7300015,26.7160032 15.418,26.068 C15.1059984,25.4199968 14.95,24.6560044 14.95,23.776 C14.95,22.8879956 15.1039984,22.1180033 15.412,21.466 C15.7200015,20.8139967 16.1639971,20.3140017 16.744,19.966 C17.3240029,19.6179983 18.009996,19.444 18.802,19.444 C19.5940039,19.444 20.2799971,19.6179983 20.86,19.966 C21.4400029,20.3140017 21.8839984,20.8139967 22.192,21.466 C22.5000015,22.1180033 22.654,22.8839956 22.654,23.764 C22.654,24.6440044 22.4980015,25.4099967 22.186,26.062 C21.8739984,26.7140033 21.4280029,27.2159982 20.848,27.568 C20.2679971,27.9200018 19.5860039,28.096 18.802,28.096 C18.0179961,28.096 17.3360029,27.9200018 16.756,27.568 Z M20.896,26.35 C21.3960025,25.745997 21.646,24.8840056 21.646,23.764 C21.646,22.6439944 21.3980025,21.784003 20.902,21.184 C20.4059975,20.583997 19.7060045,20.284 18.802,20.284 C17.9059955,20.284 17.2080025,20.585997 16.708,21.19 C16.2079975,21.794003 15.958,22.6519944 15.958,23.764 C15.958,24.8760056 16.2079975,25.735997 16.708,26.344 C17.2080025,26.952003 17.9059955,27.256 18.802,27.256 C19.6980045,27.256 20.3959975,26.954003 20.896,26.35 Z M25.942,28 L25.942,20.38 L23.002,20.38 L23.002,19.54 L29.89,19.54 L29.89,20.38 L26.938,20.38 L26.938,28 L25.942,28 Z M32.044,27.568 C31.4639971,27.2159982 31.0180016,26.7160032 30.706,26.068 C30.3939984,25.4199968 30.238,24.6560044 30.238,23.776 C30.238,22.8879956 30.3919984,22.1180033 30.7,21.466 C31.0080015,20.8139967 31.4519971,20.3140017 32.032,19.966 C32.6120029,19.6179983 33.297996,19.444 34.09,19.444 C34.8820039,19.444 35.5679971,19.6179983 36.148,19.966 C36.7280029,20.3140017 37.1719985,20.8139967 37.48,21.466 C37.7880015,22.1180033 37.942,22.8839956 37.942,23.764 C37.942,24.6440044 37.7860016,25.4099967 37.474,26.062 C37.1619984,26.7140033 36.7160029,27.2159982 36.136,27.568 C35.5559971,27.9200018 34.8740039,28.096 34.09,28.096 C33.3059961,28.096 32.6240029,27.9200018 32.044,27.568 Z M36.184,26.35 C36.6840025,25.745997 36.934,24.8840056 36.934,23.764 C36.934,22.6439944 36.6860025,21.784003 36.19,21.184 C35.6939975,20.583997 34.9940045,20.284 34.09,20.284 C33.1939955,20.284 32.4960025,20.585997 31.996,21.19 C31.4959975,21.794003 31.246,22.6519944 31.246,23.764 C31.246,24.8760056 31.4959975,25.735997 31.996,26.344 C32.4960025,26.952003 33.1939955,27.256 34.09,27.256 C34.9860045,27.256 35.6839975,26.954003 36.184,26.35 Z" id="FOTO"></path>
            </g>
        </g>
    </g>
</svg>