<?xml version="1.0" encoding="UTF-8"?>
<svg width="84px" height="70px" viewBox="0 0 84 70" version="1.1" xmlns="http://www.w3.org/2000/svg" xmlns:xlink="http://www.w3.org/1999/xlink">
    <!-- Generator: Sketch 51.1 (57501) - http://www.bohemiancoding.com/sketch -->
    <title>empty-thumbnail</title>
    <desc>Created with Sketch.</desc>
    <defs></defs>
    <g id="Page-1" stroke="none" stroke-width="1" fill="none" fill-rule="evenodd">
        <g id="empty-thumbnail" transform="translate(-1.000000, -3.000000)">
            <g id="Group" opacity="0.149999991" transform="translate(27.000000, 0.000000)">
                <path d="M20,24.999994 C20,27.209133 18.209139,28.999994 16,28.999994 C13.790861,28.999994 12,27.209133 12,24.999994 C12,22.790855 13.790861,20.999994 16,20.999994 C18.209139,20.999994 20,22.790855 20,24.999994 Z M32,16.9999931 L32,33.9999913 C32,35.6568454 30.6568542,36.999991 29,36.999991 L3,36.999991 C1.34314575,36.999991 1.48029737e-16,35.6568454 0,33.9999913 L0,16.9999931 C-1.48029737e-16,15.3431391 1.34314575,13.9999934 3,13.9999934 L7,13.9999934 L8.24333333,10.8866604 C8.69927493,9.74580702 9.80474612,8.99826028 11.0333333,8.99999398 L20.9666667,8.99999398 C22.1940385,8.99962528 23.297842,9.74693715 23.7533333,10.8866604 L25,13.9999934 L29,13.9999934 C30.6568542,13.9999934 32,15.3431391 32,16.9999931 Z M24,24.999994 C24,20.581716 20.418278,16.999994 16,16.999994 C11.581722,16.999994 8,20.581716 8,24.999994 C8,29.418272 11.581722,32.999994 16,32.999994 C20.418278,32.999994 24,29.418272 24,24.999994 Z" id="Shape" fill="#000000" fill-rule="nonzero"></path>
                <g id="Rectangle-2" transform="translate(26.449747, 14.378680) rotate(-45.000000) translate(-26.449747, -14.378680) translate(16.949747, 4.878680)">
                    <g id="path-1-link" transform="translate(1.000000, 2.000000)" fill="#000000" fill-rule="nonzero">
                        <polygon id="path-1" points="10.3738817 5.45454545 15.8284271 5.45454545 15.8284271 9.5454545 10.3738817 9.5454545 10.3738817 15 6.2829726 15 6.2829726 9.5454545 0.8284271 9.5454545 0.8284271 5.45454545 6.2829726 5.45454545 6.2829726 0 10.3738817 0"></polygon>
                    </g>
                    <polygon id="Shape" stroke="#EDF1F5" stroke-width="3" points="12.8738817 5.95454545 18.3284271 5.95454545 18.3284271 13.0454545 12.8738817 13.0454545 12.8738817 18.5 5.7829726 18.5 5.7829726 13.0454545 0.3284271 13.0454545 0.3284271 5.95454545 5.7829726 5.95454545 5.7829726 0.5 12.8738817 0.5"></polygon>
                </g>
            </g>
            <path d="M1.27199997,56 L1.27199997,47.54 L6.62399997,47.54 L6.62399997,48.356 L2.24399997,48.356 L2.24399997,51.296 L6.38399997,51.296 L6.38399997,52.112 L2.24399997,52.112 L2.24399997,55.184 L6.62399997,55.184 L6.62399997,56 L1.27199997,56 Z M8.05599997,55.028 L8.43999997,54.272 C8.85600205,54.6240018 9.28199779,54.8759992 9.71799997,55.028 C10.1540022,55.1800008 10.6599971,55.256 11.236,55.256 C11.9160034,55.256 12.4399981,55.1240013 12.808,54.86 C13.1760018,54.5959987 13.36,54.2240024 13.36,53.744 C13.36,53.4639986 13.2720009,53.2360009 13.096,53.06 C12.9199991,52.8839991 12.6880014,52.7440005 12.4,52.64 C12.1119985,52.5359995 11.7240024,52.4280006 11.236,52.316 C10.5799967,52.1639992 10.0420021,52.0040008 9.62199997,51.836 C9.20199787,51.6679992 8.86200127,51.4280016 8.60199997,51.116 C8.34199867,50.8039984 8.21199997,50.3960025 8.21199997,49.892 C8.21199997,49.4119976 8.33799871,48.9860019 8.58999997,48.614 C8.84200123,48.2419981 9.20199763,47.954001 9.66999997,47.75 C10.1380023,47.545999 10.6799969,47.444 11.296,47.444 C11.8800029,47.444 12.4259974,47.5359991 12.934,47.72 C13.4420025,47.9040009 13.8719982,48.1679983 14.224,48.512 L13.852,49.268 C13.451998,48.9239983 13.046002,48.6740008 12.634,48.518 C12.2219979,48.3619992 11.7760024,48.284 11.296,48.284 C10.6399967,48.284 10.1260018,48.4219986 9.75399997,48.698 C9.38199811,48.9740014 9.19599997,49.3599975 9.19599997,49.856 C9.19599997,50.2800021 9.35999833,50.5999989 9.68799997,50.816 C10.0160016,51.0320011 10.5119967,51.2159992 11.176,51.368 C11.9040036,51.5440009 12.4759979,51.7059993 12.892,51.854 C13.3080021,52.0020007 13.6539986,52.2239985 13.93,52.52 C14.2060014,52.8160015 14.344,53.2119975 14.344,53.708 C14.344,54.1880024 14.2180012,54.6079982 13.966,54.968 C13.7139987,55.3280018 13.3520023,55.605999 12.88,55.802 C12.4079976,55.998001 11.8560031,56.096 11.224,56.096 C9.90399337,56.096 8.84800393,55.7400036 8.05599997,55.028 Z M17.864,55.574 C17.271997,55.2259983 16.8180016,54.7260033 16.502,54.074 C16.1859984,53.4219967 16.028,52.6520044 16.028,51.764 C16.028,50.8759956 16.1859984,50.1080032 16.502,49.46 C16.8180016,48.8119968 17.271997,48.3140017 17.864,47.966 C18.4560029,47.6179983 19.151996,47.444 19.952,47.444 C20.5360029,47.444 21.0719975,47.5339991 21.56,47.714 C22.0480024,47.8940009 22.4719982,48.1599982 22.832,48.512 L22.46,49.268 C22.0519979,48.9239983 21.6520019,48.6760008 21.26,48.524 C20.867998,48.3719992 20.4360023,48.296 19.964,48.296 C19.0359953,48.296 18.3180025,48.597997 17.81,49.202 C17.3019974,49.806003 17.048,50.6599945 17.048,51.764 C17.048,52.8760056 17.3019974,53.733997 17.81,54.338 C18.3180025,54.942003 19.0359953,55.244 19.964,55.244 C20.4360023,55.244 20.867998,55.1680008 21.26,55.016 C21.6520019,54.8639992 22.0519979,54.6160017 22.46,54.272 L22.832,55.028 C22.4719982,55.3800018 22.0480024,55.6459991 21.56,55.826 C21.0719975,56.0060009 20.5360029,56.096 19.952,56.096 C19.151996,56.096 18.4560029,55.9220017 17.864,55.574 Z M26.226,55.568 C25.6459971,55.2159982 25.2000015,54.7160032 24.888,54.068 C24.5759984,53.4199968 24.42,52.6560044 24.42,51.776 C24.42,50.8879956 24.5739984,50.1180033 24.882,49.466 C25.1900015,48.8139967 25.6339971,48.3140017 26.214,47.966 C26.7940029,47.6179983 27.479996,47.444 28.272,47.444 C29.0640039,47.444 29.7499971,47.6179983 30.33,47.966 C30.9100029,48.3140017 31.3539984,48.8139967 31.662,49.466 C31.9700015,50.1180033 32.124,50.8839956 32.124,51.764 C32.124,52.6440044 31.9680015,53.4099967 31.656,54.062 C31.3439984,54.7140033 30.8980029,55.2159982 30.318,55.568 C29.7379971,55.9200018 29.0560039,56.096 28.272,56.096 C27.4879961,56.096 26.8060029,55.9200018 26.226,55.568 Z M30.366,54.35 C30.8660025,53.745997 31.116,52.8840056 31.116,51.764 C31.116,50.6439944 30.8680025,49.784003 30.372,49.184 C29.8759975,48.583997 29.1760045,48.284 28.272,48.284 C27.3759955,48.284 26.6780025,48.585997 26.178,49.19 C25.6779975,49.794003 25.428,50.6519944 25.428,51.764 C25.428,52.8760056 25.6779975,53.735997 26.178,54.344 C26.6780025,54.952003 27.3759955,55.256 28.272,55.256 C29.1680045,55.256 29.8659975,54.954003 30.366,54.35 Z M40.996,51.596 L40.996,55.508 C40.6599983,55.6840009 40.2220027,55.8259995 39.682,55.934 C39.1419973,56.0420005 38.5960028,56.096 38.044,56.096 C37.2039958,56.096 36.480003,55.9240017 35.872,55.58 C35.263997,55.2359983 34.7980016,54.7400032 34.474,54.092 C34.1499984,53.4439968 33.988,52.6680045 33.988,51.764 C33.988,50.8679955 34.1479984,50.0960032 34.468,49.448 C34.7880016,48.7999968 35.247997,48.3040017 35.848,47.96 C36.448003,47.6159983 37.1559959,47.444 37.972,47.444 C38.564003,47.444 39.1079975,47.5339991 39.604,47.714 C40.1000025,47.8940009 40.5239982,48.1599982 40.876,48.512 L40.504,49.268 C40.095998,48.9159982 39.694002,48.6640008 39.298,48.512 C38.901998,48.3599992 38.4600024,48.284 37.972,48.284 C37.0199952,48.284 36.2880026,48.583997 35.776,49.184 C35.2639974,49.784003 35.008,50.6439944 35.008,51.764 C35.008,52.9080057 35.2679974,53.777997 35.788,54.374 C36.3080026,54.970003 37.067995,55.268 38.068,55.268 C38.7960036,55.268 39.4719969,55.1600011 40.096,54.944 L40.096,52.364 L37.996,52.364 L37.996,51.596 L40.996,51.596 Z M43.388,56 L43.388,47.54 L48.74,47.54 L48.74,48.356 L44.36,48.356 L44.36,51.296 L48.5,51.296 L48.5,52.112 L44.36,52.112 L44.36,55.184 L48.74,55.184 L48.74,56 L43.388,56 Z M54.268,56 L54.268,47.54 L59.5,47.54 L59.5,48.368 L55.24,48.368 L55.24,51.284 L59.26,51.284 L59.26,52.112 L55.24,52.112 L55.24,56 L54.268,56 Z M62.654,55.568 C62.0739971,55.2159982 61.6280016,54.7160032 61.316,54.068 C61.0039985,53.4199968 60.848,52.6560044 60.848,51.776 C60.848,50.8879956 61.0019985,50.1180033 61.31,49.466 C61.6180016,48.8139967 62.0619971,48.3140017 62.642,47.966 C63.2220029,47.6179983 63.9079961,47.444 64.7,47.444 C65.492004,47.444 66.1779971,47.6179983 66.758,47.966 C67.3380029,48.3140017 67.7819985,48.8139967 68.09,49.466 C68.3980016,50.1180033 68.552,50.8839956 68.552,51.764 C68.552,52.6440044 68.3960016,53.4099967 68.084,54.062 C67.7719985,54.7140033 67.3260029,55.2159982 66.746,55.568 C66.1659971,55.9200018 65.4840039,56.096 64.7,56.096 C63.9159961,56.096 63.2340029,55.9200018 62.654,55.568 Z M66.794,54.35 C67.2940025,53.745997 67.544,52.8840056 67.544,51.764 C67.544,50.6439944 67.2960025,49.784003 66.8,49.184 C66.3039975,48.583997 65.6040045,48.284 64.7,48.284 C63.8039955,48.284 63.1060025,48.585997 62.606,49.19 C62.1059975,49.794003 61.856,50.6519944 61.856,51.764 C61.856,52.8760056 62.1059975,53.735997 62.606,54.344 C63.1060025,54.952003 63.8039955,55.256 64.7,55.256 C65.5960045,55.256 66.2939975,54.954003 66.794,54.35 Z M72.24,56 L72.24,48.38 L69.3,48.38 L69.3,47.54 L76.188,47.54 L76.188,48.38 L73.236,48.38 L73.236,56 L72.24,56 Z M78.742,55.568 C78.1619971,55.2159982 77.7160016,54.7160032 77.404,54.068 C77.0919985,53.4199968 76.936,52.6560044 76.936,51.776 C76.936,50.8879956 77.0899985,50.1180033 77.398,49.466 C77.7060016,48.8139967 78.1499971,48.3140017 78.73,47.966 C79.3100029,47.6179983 79.9959961,47.444 80.788,47.444 C81.580004,47.444 82.2659971,47.6179983 82.846,47.966 C83.4260029,48.3140017 83.8699985,48.8139967 84.178,49.466 C84.4860016,50.1180033 84.64,50.8839956 84.64,51.764 C84.64,52.6440044 84.4840016,53.4099967 84.172,54.062 C83.8599985,54.7140033 83.4140029,55.2159982 82.834,55.568 C82.2539971,55.9200018 81.5720039,56.096 80.788,56.096 C80.0039961,56.096 79.3220029,55.9200018 78.742,55.568 Z M82.882,54.35 C83.3820025,53.745997 83.632,52.8840056 83.632,51.764 C83.632,50.6439944 83.3840025,49.784003 82.888,49.184 C82.3919975,48.583997 81.6920045,48.284 80.788,48.284 C79.8919955,48.284 79.1940025,48.585997 78.694,49.19 C78.1939975,49.794003 77.944,50.6519944 77.944,51.764 C77.944,52.8760056 78.1939975,53.735997 78.694,54.344 C79.1940025,54.952003 79.8919955,55.256 80.788,55.256 C81.6840045,55.256 82.3819975,54.954003 82.882,54.35 Z M6.43599997,63.54 L9.27999997,63.54 C10.6320067,63.54 11.6779963,63.9059963 12.418,64.638 C13.1580037,65.3700037 13.528,66.4119932 13.528,67.764 C13.528,69.1160068 13.1580037,70.1599963 12.418,70.896 C11.6779963,71.6320037 10.6320067,72 9.27999997,72 L6.43599997,72 L6.43599997,63.54 Z M9.21999997,71.16 C11.4120109,71.16 12.508,70.0280113 12.508,67.764 C12.508,65.5079887 11.4120109,64.38 9.21999997,64.38 L7.41999997,64.38 L7.41999997,71.16 L9.21999997,71.16 Z M15.704,72 L15.704,63.54 L21.056,63.54 L21.056,64.356 L16.676,64.356 L16.676,67.296 L20.816,67.296 L20.816,68.112 L16.676,68.112 L16.676,71.184 L21.056,71.184 L21.056,72 L15.704,72 Z M22.488,71.028 L22.872,70.272 C23.2880021,70.6240018 23.7139978,70.8759992 24.15,71.028 C24.5860022,71.1800008 25.0919971,71.256 25.668,71.256 C26.3480034,71.256 26.8719981,71.1240013 27.24,70.86 C27.6080018,70.5959987 27.792,70.2240024 27.792,69.744 C27.792,69.4639986 27.7040009,69.2360009 27.528,69.06 C27.3519991,68.8839991 27.1200014,68.7440005 26.832,68.64 C26.5439985,68.5359995 26.1560024,68.4280006 25.668,68.316 C25.0119967,68.1639992 24.4740021,68.0040008 24.054,67.836 C23.6339979,67.6679992 23.2940013,67.4280016 23.034,67.116 C22.7739987,66.8039984 22.644,66.3960025 22.644,65.892 C22.644,65.4119976 22.7699987,64.9860019 23.022,64.614 C23.2740012,64.2419981 23.6339976,63.954001 24.102,63.75 C24.5700023,63.545999 25.1119969,63.444 25.728,63.444 C26.3120029,63.444 26.8579974,63.5359991 27.366,63.72 C27.8740025,63.9040009 28.3039982,64.1679983 28.656,64.512 L28.284,65.268 C27.883998,64.9239983 27.478002,64.6740008 27.066,64.518 C26.6539979,64.3619992 26.2080024,64.284 25.728,64.284 C25.0719967,64.284 24.5580018,64.4219986 24.186,64.698 C23.8139981,64.9740014 23.628,65.3599975 23.628,65.856 C23.628,66.2800021 23.7919983,66.5999989 24.12,66.816 C24.4480016,67.0320011 24.9439967,67.2159992 25.608,67.368 C26.3360036,67.5440009 26.9079979,67.7059993 27.324,67.854 C27.7400021,68.0020007 28.0859986,68.2239985 28.362,68.52 C28.6380014,68.8160015 28.776,69.2119975 28.776,69.708 C28.776,70.1880024 28.6500012,70.6079982 28.398,70.968 C28.1459987,71.3280018 27.7840023,71.605999 27.312,71.802 C26.8399976,71.998001 26.2880031,72.096 25.656,72.096 C24.3359934,72.096 23.2800039,71.7400036 22.488,71.028 Z M32.632,72 L32.632,64.38 L29.692,64.38 L29.692,63.54 L36.58,63.54 L36.58,64.38 L33.628,64.38 L33.628,72 L32.632,72 Z M43.64,72 L42.704,69.828 L38.288,69.828 L37.352,72 L36.344,72 L40.064,63.54 L40.916,63.54 L44.636,72 L43.64,72 Z M38.636,69.012 L42.356,69.012 L40.496,64.68 L38.636,69.012 Z M47.532,71.574 C46.939997,71.2259983 46.4860016,70.7260033 46.17,70.074 C45.8539984,69.4219967 45.696,68.6520044 45.696,67.764 C45.696,66.8759956 45.8539984,66.1080032 46.17,65.46 C46.4860016,64.8119968 46.939997,64.3140017 47.532,63.966 C48.124003,63.6179983 48.819996,63.444 49.62,63.444 C50.2040029,63.444 50.7399976,63.5339991 51.228,63.714 C51.7160024,63.8940009 52.1399982,64.1599982 52.5,64.512 L52.128,65.268 C51.719998,64.9239983 51.320002,64.6760008 50.928,64.524 C50.535998,64.3719992 50.1040024,64.296 49.632,64.296 C48.7039954,64.296 47.9860025,64.597997 47.478,65.202 C46.9699975,65.806003 46.716,66.6599945 46.716,67.764 C46.716,68.8760056 46.9699975,69.733997 47.478,70.338 C47.9860025,70.942003 48.7039954,71.244 49.632,71.244 C50.1040024,71.244 50.535998,71.1680008 50.928,71.016 C51.320002,70.8639992 51.719998,70.6160017 52.128,70.272 L52.5,71.028 C52.1399982,71.3800018 51.7160024,71.6459991 51.228,71.826 C50.7399976,72.0060009 50.2040029,72.096 49.62,72.096 C48.819996,72.096 48.124003,71.9220017 47.532,71.574 Z M60.796,72 L59.86,69.828 L55.444,69.828 L54.508,72 L53.5,72 L57.22,63.54 L58.072,63.54 L61.792,72 L60.796,72 Z M55.792,69.012 L59.512,69.012 L57.652,64.68 L55.792,69.012 Z M63.452,63.54 L66.296,63.54 C67.6480068,63.54 68.6939963,63.9059963 69.434,64.638 C70.1740037,65.3700037 70.544,66.4119932 70.544,67.764 C70.544,69.1160068 70.1740037,70.1599963 69.434,70.896 C68.6939963,71.6320037 67.6480068,72 66.296,72 L63.452,72 L63.452,63.54 Z M66.236,71.16 C68.428011,71.16 69.524,70.0280113 69.524,67.764 C69.524,65.5079887 68.428011,64.38 66.236,64.38 L64.436,64.38 L64.436,71.16 L66.236,71.16 Z M78.996,72 L78.06,69.828 L73.644,69.828 L72.708,72 L71.7,72 L75.42,63.54 L76.272,63.54 L79.992,72 L78.996,72 Z M73.992,69.012 L77.712,69.012 L75.852,64.68 L73.992,69.012 Z" id="ESCOGE-FOTO-DESTACAD" fill="#B2B2B2"></path>
        </g>
    </g>
</svg>