<?xml version="1.0" encoding="UTF-8"?>
<svg width="47px" height="70px" viewBox="0 0 47 70" version="1.1" xmlns="http://www.w3.org/2000/svg" xmlns:xlink="http://www.w3.org/1999/xlink">
    <!-- Generator: Sketch 49 (51002) - http://www.bohemiancoding.com/sketch -->
    <title>Group 3</title>
    <desc>Created with Sketch.</desc>
    <defs>
        <path d="M28.3738817,9.45454545 L33.8284271,9.45454545 L33.8284271,13.5454545 L28.3738817,13.5454545 L28.3738817,19 L24.2829726,19 L24.2829726,13.5454545 L18.8284271,13.5454545 L18.8284271,9.45454545 L24.2829726,9.45454545 L24.2829726,4 L28.3738817,4 L28.3738817,9.45454545 Z" id="path-1"></path>
    </defs>
    <g id="5_Organization" stroke="none" stroke-width="1" fill="none" fill-rule="evenodd">
        <g id="Org-Detail-(768)" transform="translate(-645.000000, -962.000000)">
            <g id="//-acciones" transform="translate(20.000000, 922.000000)">
                <g id="::-card-(no-photo)">
                    <g id="::-fotos" transform="translate(588.000000, 20.000000)">
                        <g id="::-photo">
                            <g id="Group-3" transform="translate(36.000000, 20.000000)">
                                <g id="Group" opacity="0.149999991" transform="translate(9.000000, 0.000000)">
                                    <path d="M20,21.999994 C20,24.209133 18.209139,25.999994 16,25.999994 C13.790861,25.999994 12,24.209133 12,21.999994 C12,19.790855 13.790861,17.999994 16,17.999994 C18.209139,17.999994 20,19.790855 20,21.999994 Z M32,13.9999931 L32,30.9999913 C32,32.6568454 30.6568542,33.999991 29,33.999991 L3,33.999991 C1.34314575,33.999991 1.48029737e-16,32.6568454 0,30.9999913 L0,13.9999931 C-1.48029737e-16,12.3431391 1.34314575,10.9999934 3,10.9999934 L7,10.9999934 L8.24333333,7.88666045 C8.69927493,6.74580702 9.80474612,5.99826028 11.0333333,5.99999398 L20.9666667,5.99999398 C22.1940385,5.99962528 23.297842,6.74693715 23.7533333,7.88666045 L25,10.9999934 L29,10.9999934 C30.6568542,10.9999934 32,12.3431391 32,13.9999931 Z M24,21.999994 C24,17.581716 20.418278,13.999994 16,13.999994 C11.581722,13.999994 8,17.581716 8,21.999994 C8,26.418272 11.581722,29.999994 16,29.999994 C20.418278,29.999994 24,26.418272 24,21.999994 Z" id="Shape" fill="#000000" fill-rule="nonzero"></path>
                                    <g id="Rectangle-2" transform="translate(26.328427, 11.500000) rotate(-45.000000) translate(-26.328427, -11.500000) ">
                                        <use fill="#000000" fill-rule="evenodd" xlink:href="#path-1"></use>
                                        <path stroke="#EDF1F5" stroke-width="3" d="M29.8738817,7.95454545 L35.3284271,7.95454545 L35.3284271,15.0454545 L29.8738817,15.0454545 L29.8738817,20.5 L22.7829726,20.5 L22.7829726,15.0454545 L17.3284271,15.0454545 L17.3284271,7.95454545 L22.7829726,7.95454545 L22.7829726,2.5 L29.8738817,2.5 L29.8738817,7.95454545 Z"></path>
                                    </g>
                                </g>
                                <text id="NO-HAY-FOTO" opacity="0.300000012" font-family="NunitoSans-Regular, Nunito Sans" font-size="12" font-weight="normal" line-spacing="16" letter-spacing="0.400000006" fill="#141418">
                                    <tspan x="0.185999982" y="53">NO HAY</tspan>
                                    <tspan x="7.72599999" y="69">FOTO</tspan>
                                </text>
                            </g>
                        </g>
                    </g>
                </g>
            </g>
        </g>
    </g>
</svg>