<?xml version="1.0" encoding="UTF-8"?>
<svg width="12px" height="12px" viewBox="0 0 12 12" version="1.1" xmlns="http://www.w3.org/2000/svg" xmlns:xlink="http://www.w3.org/1999/xlink">
    <!-- Generator: Sketch 48.2 (47327) - http://www.bohemiancoding.com/sketch -->
    <title>Rectangle 7</title>
    <desc>Created with Sketch.</desc>
    <defs></defs>
    <g id="gallery-(1440)" stroke="none" stroke-width="1" fill="none" fill-rule="evenodd" transform="translate(-844.000000, -847.000000)" opacity="0.699999988">
        <g id="//-gallery" transform="translate(-809.000000, 0.000000)" fill="#FFFFFF">
            <g id="::-copy" transform="translate(1185.000000, 843.000000)">
                <g id="::-coordinates" transform="translate(468.000000, 0.000000)">
                    <path d="M1,5 L1,15 L11,15 L11,12 L12,12 L12,16 L11,16 L1,16 L0,16 L0,4 L1,4 L4,4 L4,5 L1,5 Z M10.363961,5 L7,5 L7,4 L12,4 L12,5 L12,9 L11,9 L11,5.77817459 L5.20710678,11.5710678 L4.5,10.863961 L10.363961,5 Z" id="Rectangle-7"></path>
                </g>
            </g>
        </g>
    </g>
</svg>