<?xml version="1.0" encoding="UTF-8"?>
<svg width="77px" height="24px" viewBox="0 0 77 24" version="1.1" xmlns="http://www.w3.org/2000/svg" xmlns:xlink="http://www.w3.org/1999/xlink">
    <!-- Generator: Sketch 49 (51002) - http://www.bohemiancoding.com/sketch -->
    <title>Page 1</title>
    <desc>Created with Sketch.</desc>
    <defs>
        <polygon id="path-1" points="0.095099701 0.136386207 28.0703837 0.136386207 28.0703837 3.18233379 0.095099701 3.18233379"></polygon>
        <polygon id="path-3" points="0.113337533 0.0514303069 11.453131 0.0514303069 11.453131 18.0775942 0.113337533 18.0775942"></polygon>
    </defs>
    <g id="5_Organization" stroke="none" stroke-width="1" fill="none" fill-rule="evenodd">
        <g id="Org_page" transform="translate(-25.000000, -22.000000)">
            <g id="Page-1" transform="translate(25.000000, 22.000000)">
                <path d="M6.08384235,16.7856084 C6.08384235,16.2205933 5.78871056,15.9164903 5.17579616,15.9164903 L3.11004142,15.9164903 L3.11004142,20.3046293 L5.17579616,20.3046293 C5.76605974,20.3046293 6.08384235,20.0225232 6.08384235,19.4358324 L6.08384235,16.7856084 Z M6.08384235,9.52968488 C6.08384235,8.96466983 5.78871056,8.66072739 5.17579616,8.66072739 L3.11004142,8.66072739 L3.11004142,13.0490269 L5.17579616,13.0490269 C5.76605974,13.0490269 6.08384235,12.7447634 6.08384235,12.2015847 L6.08384235,9.52968488 Z M9.10344828,12.9184906 C9.10344828,13.7224208 8.49019831,14.3306268 7.67309097,14.4610026 L7.67309097,14.5043541 C8.49019831,14.6347298 9.10344828,15.2430964 9.10344828,16.046866 L9.10344828,20.0440384 C9.10344828,22.0862169 7.94573972,23.1724138 5.81152917,23.1724138 L0.363084248,23.1724138 C0.136408269,23.1724138 0,23.0421986 0,22.8247987 L0,6.14055799 C0,5.90164285 0.136408269,5.79310345 0.363084248,5.79310345 L5.81152917,5.79310345 C7.94573972,5.79310345 9.10344828,6.87913975 9.10344828,8.92115774 L9.10344828,12.9184906 Z" id="Fill-1" fill="#161414"></path>
                <path d="M16.7912878,14.4826783 C17.3672109,14.4826783 17.6776003,14.1785753 17.6776003,13.6137209 L17.6776003,9.52968488 C17.6776003,8.96466983 17.3672109,8.66072739 16.7912878,8.66072739 L14.5987528,8.66072739 L14.5987528,14.4826783 L16.7912878,14.4826783 Z M20.6896552,14.2220874 C20.6896552,15.6775752 20.13616,16.6333963 19.0728796,17.0895508 L20.6010894,22.7814471 C20.6677184,23.0421986 20.5347878,23.1724138 20.2910273,23.1724138 L17.9876624,23.1724138 C17.7658387,23.1724138 17.6551724,23.0637138 17.6108077,22.8683108 L16.1269626,17.3503023 L14.5987528,17.3503023 L14.5987528,22.8247987 C14.5987528,23.0421986 14.4656586,23.1724138 14.2439986,23.1724138 L11.94047,23.1724138 C11.7193011,23.1724138 11.5862069,23.0421986 11.5862069,22.8247987 L11.5862069,6.14055799 C11.5862069,5.92331862 11.7193011,5.79310345 11.94047,5.79310345 L17.5003051,5.79310345 C19.58201,5.79310345 20.6896552,6.87930031 20.6896552,8.92115774 L20.6896552,14.2220874 Z" id="Fill-3" fill="#161414"></path>
                <path d="M26.9210618,5.79310345 C27.1642737,5.79310345 27.3103448,5.92331862 27.3103448,6.14055799 L27.3103448,22.8247987 C27.3103448,23.0421986 27.1642737,23.1724138 26.9210618,23.1724138 L24.3898227,23.1724138 C24.1219658,23.1724138 24,23.0421986 24,22.8247987 L24,6.14055799 C24,5.92331862 24.1219658,5.79310345 24.3898227,5.79310345 L26.9210618,5.79310345 Z" id="Fill-5" fill="#161414"></path>
                <path d="M29.7931034,8.92115774 C29.7931034,6.87913975 30.8769503,5.79310345 32.9144093,5.79310345 L35.7750857,5.79310345 C37.7910792,5.79310345 38.8965517,6.87913975 38.8965517,8.92115774 L38.8965517,11.1807362 C38.8965517,11.3979756 38.7663171,11.5281908 38.5494196,11.5281908 L36.3820463,11.5281908 C36.1436833,11.5281908 36.0353948,11.3979756 36.0353948,11.1807362 L36.0353948,9.52968488 C36.0353948,8.96466983 35.7321547,8.66072739 35.1684454,8.66072739 L33.6077124,8.66072739 C33.0226979,8.66072739 32.7409233,8.96466983 32.7409233,9.52968488 L32.7409233,19.4358324 C32.7409233,20.0225232 33.0441633,20.3046293 33.6077124,20.3046293 L35.1684454,20.3046293 C35.7321547,20.3046293 36.0353948,20.0225232 36.0353948,19.4358324 L36.0353948,16.5248569 L34.9081364,16.5248569 C34.6697734,16.5248569 34.5614848,16.3943206 34.5614848,16.1770812 L34.5614848,14.0048481 C34.5614848,13.7659329 34.6697734,13.6572329 34.9081364,13.6572329 L38.5494196,13.6572329 C38.7663171,13.6572329 38.8965517,13.7659329 38.8965517,14.0048481 L38.8965517,20.0440384 C38.8965517,22.0862169 37.7910792,23.1724138 35.7750857,23.1724138 L32.9144093,23.1724138 C30.8769503,23.1724138 29.7931034,22.0862169 29.7931034,20.0440384 L29.7931034,8.92115774 Z" id="Fill-7" fill="#161414"></path>
                <path d="M59.8097561,20.3047899 C60.4015139,20.3047899 60.7204373,20.0225232 60.7204373,19.4358324 L60.7204373,9.55136065 C60.7204373,8.9648304 60.4015139,8.66072739 59.8097561,8.66072739 L57.7162321,8.66072739 L57.7162321,20.3047899 L59.8097561,20.3047899 Z M54.6206897,6.14055799 C54.6206897,5.92331862 54.7343987,5.79310345 54.984693,5.79310345 L60.4470984,5.79310345 C62.5867115,5.79310345 63.7241379,6.90097608 63.7241379,8.94299407 L63.7241379,20.0440384 C63.7241379,22.0863775 62.5867115,23.1724138 60.4470984,23.1724138 L54.984693,23.1724138 C54.7343987,23.1724138 54.6206897,23.0638744 54.6206897,22.8247987 L54.6206897,6.14055799 Z" id="Fill-9" fill="#161414"></path>
                <g id="Group-13" transform="translate(45.517241, 0.000000)">
                    <mask id="mask-2" fill="white">
                        <use xlink:href="#path-1"></use>
                    </mask>
                    <g id="Clip-12"></g>
                    <path d="M0.095099701,0.494664828 C0.095099701,0.270885517 0.227169065,0.13632 0.447067809,0.13632 L27.718253,0.13632 C27.9383144,0.13632 28.0703837,0.270885517 28.0703837,0.494664828 L28.0703837,2.82365793 C28.0703837,3.06994759 27.9383144,3.18233379 27.718253,3.18233379 L0.447067809,3.18233379 C0.227169065,3.18233379 0.095099701,3.06994759 0.095099701,2.82365793 L0.095099701,0.494664828 Z" id="Fill-11" fill="#161414" mask="url(#mask-2)"></path>
                </g>
                <path d="M48.6264194,6.13193542 C48.5838627,5.91404585 48.4568207,5.79310345 48.2650798,5.79310345 L45.3123339,5.79310345 C45.1205931,5.79310345 44.993394,5.91404585 44.9508373,6.13193542 L42.5854056,17.2138667 L41.3975861,22.8297168 C41.3336724,23.069347 41.4401428,23.1724138 41.6739692,23.1724138 L43.9470638,23.1724138 C44.1383335,23.1724138 44.2448039,23.115566 44.2868895,22.9194171 L44.8608557,19.7905357 L48.6427512,19.7905357 L49.2377602,22.9194171 C49.2803169,23.115566 49.3864732,23.1724138 49.5775858,23.1724138 L51.8296376,23.1724138 C52.084978,23.1724138 52.1699344,23.069347 52.1275347,22.8297168 L50.9394011,17.2138667 L45.4299538,17.2138667 L46.7781069,9.67372801 L47.8555302,15.6983022 L50.6339663,15.6983022 L48.6264194,6.13193542 Z" id="Fill-14" fill="#161414"></path>
                <g id="Group-18" transform="translate(65.379310, 5.793103)">
                    <mask id="mask-4" fill="white">
                        <use xlink:href="#path-3"></use>
                    </mask>
                    <g id="Clip-17"></g>
                    <path d="M11.4421407,17.7221421 L10.1900028,11.8972715 L4.38266483,11.8972715 L5.80379586,4.07665777 L6.93924414,10.3254651 L9.86790621,10.3254651 L7.75193379,0.402873521 C7.70724414,0.176874154 7.57300966,0.0514303069 7.37107862,0.0514303069 L4.25869241,0.0514303069 C4.05676138,0.0514303069 3.9225269,0.176874154 3.87783724,0.402873521 L1.38465103,11.8972715 L0.132678621,17.7221421 C0.0651475862,17.9708583 0.177368276,18.0775942 0.423823448,18.0775942 L2.81985103,18.0775942 C3.02145103,18.0775942 3.13367172,18.0186306 3.17803034,17.8153481 L3.78316138,14.5698435 L7.76914759,14.5698435 L8.39629241,17.8153481 C8.44098207,18.0186306 8.55287172,18.0775942 8.75447172,18.0775942 L11.12832,18.0775942 C11.3972855,18.0775942 11.4869959,17.9708583 11.4421407,17.7221421" id="Fill-16" fill="#161414" mask="url(#mask-4)"></path>
                </g>
            </g>
        </g>
    </g>
</svg>