<?xml version="1.0" encoding="UTF-8"?>
<svg width="80px" height="24px" viewBox="0 0 80 24" version="1.1" xmlns="http://www.w3.org/2000/svg" xmlns:xlink="http://www.w3.org/1999/xlink">
    <!-- Generator: Sketch 49 (51002) - http://www.bohemiancoding.com/sketch -->
    <title>Group</title>
    <desc>Created with Sketch.</desc>
    <defs></defs>
    <g id="1_Landing" stroke="none" stroke-width="1" fill="none" fill-rule="evenodd">
        <g id="1440" transform="translate(-27.000000, -28.000000)" fill="#2B2C30">
            <g id="Group" transform="translate(27.000000, 28.000000)">
                <path d="M0.201171875,23 L0.201171875,0.954101562 L3.04296875,0.954101562 C5.06446323,0.954101562 6.53905786,1.38378477 7.46679688,2.24316406 C8.46289561,3.17090308 8.9609375,4.68944258 8.9609375,6.79882812 C8.9609375,7.89258359 8.81933735,8.74218447 8.53613281,9.34765625 C8.23339692,9.99219072 7.70605845,10.6611293 6.95410156,11.3544922 C7.74512114,11.8037132 8.37499766,12.7070245 8.84375,14.0644531 C9.07812617,14.7480503 9.1953125,15.6464788 9.1953125,16.7597656 C9.1953125,18.5371183 8.84863628,19.9580025 8.15527344,21.0224609 C7.34472251,22.2529358 6.02149355,22.9121089 4.18554688,23 L0.201171875,23 Z M3.43847656,19.7919922 C4.08301104,19.7919922 4.56152188,19.6796886 4.87402344,19.4550781 C5.51855791,18.9863258 5.84082031,17.9658282 5.84082031,16.3935547 C5.84082031,14.8310469 5.51855791,13.815432 4.87402344,13.3466797 C4.56152188,13.1220692 4.08301104,13.0097656 3.43847656,13.0097656 L3.43847656,19.7919922 Z M3.43847656,10.0361328 C4.07324536,10.0361328 4.5517562,9.92871201 4.87402344,9.71386719 C5.51855791,9.27441187 5.84082031,8.40527993 5.84082031,7.10644531 C5.84082031,5.79784502 5.51855791,4.92383032 4.87402344,4.484375 C4.5517562,4.26953018 4.07324536,4.16210938 3.43847656,4.16210938 L3.43847656,10.0361328 Z M12.6356863,23 L12.6356863,0.954101562 L15.872991,0.954101562 C17.7772974,0.954101562 19.1737678,1.48388142 20.0624441,2.54345703 C20.9511204,3.60303264 21.3954519,5.19237222 21.3954519,7.31152344 C21.3954519,8.46387295 21.2440862,9.48681194 20.9413503,10.3803711 C20.6386145,11.2739302 20.1894002,11.9208964 19.5936941,12.3212891 L21.6591238,23 L18.4218191,23 L16.7372488,13.6982422 L15.872991,13.6982422 L15.872991,23 L12.6356863,23 Z M15.872991,10.6953125 C16.5468225,10.6953125 17.0595126,10.5390641 17.4110769,10.2265625 C17.9872517,9.71874746 18.2753347,8.7861396 18.2753347,7.42871094 C18.2753347,6.0615166 17.9872517,5.12402598 17.4110769,4.61621094 C17.0692783,4.31347505 16.5565881,4.16210938 15.872991,4.16210938 L15.872991,10.6953125 Z M24.9823101,23 L24.9823101,0.954101562 L28.2196147,0.954101562 L28.2196147,23 L24.9823101,23 Z M31.9383088,5.48046875 C31.9676059,4.55272974 32.1433853,3.76172202 32.4656526,3.10742188 C32.7683885,2.42382471 33.1883061,1.87695518 33.7254182,1.46679688 C34.3992497,0.958981836 35.2390851,0.705078125 36.2449495,0.705078125 C37.2312825,0.705078125 38.0613523,0.958981836 38.7351838,1.46679688 C39.3211243,1.9062522 39.7556902,2.45312173 40.0388948,3.10742188 C40.361162,3.76172202 40.5369415,4.55272974 40.5662385,5.48046875 L40.5662385,8.86425781 L37.3289338,8.86425781 L37.3289338,5.48046875 C37.3289338,4.90429399 37.1922165,4.44531421 36.9187776,4.10351562 C36.7527611,3.93749917 36.528154,3.85449219 36.2449495,3.85449219 C35.7761971,3.85449219 35.4588175,4.12792695 35.292801,4.67480469 C35.2146756,4.87988384 35.1756135,5.14843584 35.1756135,5.48046875 L35.1756135,18.7373047 C35.1756135,19.3134794 35.3220964,19.7724592 35.6150666,20.1142578 C35.7810831,20.2802743 35.9910419,20.3632812 36.2449495,20.3632812 C36.7527645,20.3632812 37.0750269,20.0898465 37.2117463,19.5429688 C37.2898717,19.3574209 37.3289338,19.0888689 37.3289338,18.7373047 L37.3289338,14.7529297 L36.0398713,14.7529297 L36.0398713,12.0136719 L40.5662385,12.0136719 L40.5662385,23 L38.6472932,23 L38.2664338,21.9453125 C37.573071,22.8046918 36.7332356,23.234375 35.7469026,23.234375 C34.7605695,23.234375 33.9890929,22.9853541 33.4324495,22.4873047 C32.9246344,22.057615 32.5437789,21.520511 32.2898713,20.8759766 C32.0554952,20.2509734 31.9383088,19.5380899 31.9383088,18.7373047 L31.9383088,5.48046875 Z M43.5525107,23 L46.8923545,0.954101562 L50.8474326,0.954101562 L54.1726279,23 L51.0232139,23 L50.4226279,18.5029297 L47.3025107,18.5029297 L46.7165732,23 L43.5525107,23 Z M47.7566123,15.0751953 L49.9831748,15.0751953 L49.0456748,8.1171875 L48.9577842,7.54589844 L48.7820029,7.54589844 L48.6941123,8.1171875 L47.7566123,15.0751953 Z M57.188197,23 L57.188197,0.954101562 L59.7370251,0.954101562 C61.2702359,0.954101562 62.4616303,1.12499829 63.3112439,1.46679688 C64.1608575,1.80859546 64.8004996,2.3945271 65.2301892,3.22460938 C65.6208162,4.00586328 65.8771613,5.05809885 65.9992322,6.38134766 C66.1213031,7.70459646 66.1823376,9.57225356 66.1823376,11.984375 C66.1823376,14.3867308 66.1213031,16.2470637 65.9992322,17.5654297 C65.8771613,18.8837957 65.6208162,19.9335898 65.2301892,20.7148438 C64.8004996,21.544926 64.1584161,22.133299 63.3039197,22.4799805 C62.4494232,22.8266619 61.2604703,23 59.7370251,23 L57.188197,23 Z M60.4255017,19.7626953 C61.0407392,19.7626953 61.4997189,19.6894539 61.8024548,19.5429688 C62.1051907,19.3964836 62.3346806,19.0693385 62.4909314,18.5615234 C62.6667135,17.9365203 62.7692516,17.1552781 62.7985486,16.2177734 C62.8180799,15.5146449 62.8278455,14.0937607 62.8278455,11.9550781 C62.8278455,9.82616123 62.8180799,8.41015977 62.7985486,7.70703125 C62.7692516,6.80858926 62.6667135,6.02734707 62.4909314,5.36328125 C62.3346806,4.87499756 62.1051907,4.55761792 61.8024548,4.41113281 C61.4997189,4.26464771 61.0407392,4.19140625 60.4255017,4.19140625 L60.4255017,19.7626953 Z M68.9488833,23 L72.288727,0.954101562 L76.2438052,0.954101562 L79.5690005,23 L76.4195864,23 L75.8190005,18.5029297 L72.6988833,18.5029297 L72.1129458,23 L68.9488833,23 Z M73.1529849,15.0751953 L75.3795474,15.0751953 L74.4420474,8.1171875 L74.3541567,7.54589844 L74.1783755,7.54589844 L74.0904849,8.1171875 L73.1529849,15.0751953 Z" id="BRIGADA"></path>
            </g>
        </g>
    </g>
</svg>