<?xml version="1.0" encoding="UTF-8"?>
<svg width="87px" height="24px" viewBox="0 0 87 24" version="1.1" xmlns="http://www.w3.org/2000/svg" xmlns:xlink="http://www.w3.org/1999/xlink">
    <!-- Generator: Sketch 48.2 (47327) - http://www.bohemiancoding.com/sketch -->
    <title>SINTONIA</title>
    <desc>Created with Sketch.</desc>
    <defs></defs>
    <g id="1440" stroke="none" stroke-width="1" fill="none" fill-rule="evenodd" transform="translate(-26.000000, -28.000000)">
        <path d="M26.5419922,44.8183594 L29.7207031,44.5253906 C29.7207031,45.7070372 29.8085929,46.556638 29.984375,47.0742188 C30.2089855,47.875004 30.6289032,48.2753906 31.2441406,48.2753906 C32.1328169,48.2753906 32.5771484,47.4648519 32.5771484,45.84375 C32.5771484,45.2382782 32.2939481,44.4277395 31.7275391,43.4121094 C31.4638659,42.9824197 31.1855483,42.542971 30.8925781,42.09375 C30.2578093,41.195308 29.5791052,40.1845759 28.8564453,39.0615234 C28.1240198,37.9189396 27.5917985,36.7763729 27.2597656,35.6337891 C27.0839835,35.0576143 26.9960938,34.4716827 26.9960938,33.8759766 C26.9960938,32.4697195 27.3134734,31.3076218 27.9482422,30.3896484 C28.7294961,29.295893 29.8183524,28.7343751 31.2148438,28.7050781 L31.3320312,28.7050781 C33.0410242,28.7050781 34.242184,29.3544857 34.9355469,30.6533203 C35.4824246,31.6982474 35.7558594,33.0019453 35.7558594,34.5644531 L32.5771484,34.8574219 C32.5771484,33.9296829 32.4941415,33.2119166 32.328125,32.7041016 C32.0937488,32.0205044 31.7421898,31.6787109 31.2734375,31.6787109 C30.541012,31.708008 30.1748047,32.4404225 30.1748047,33.8759766 C30.1748047,34.520511 30.4433567,35.306636 30.9804688,36.234375 C31.2246106,36.6640646 31.8056595,37.5478449 32.7236328,38.8857422 C33.7002002,40.3408276 34.3886699,41.4589805 34.7890625,42.2402344 C35.433597,43.5000063 35.7558594,44.6523385 35.7558594,45.6972656 C35.7558594,47.3476645 35.4433625,48.6367141 34.8183594,49.5644531 C34.0664025,50.6777399 32.8750082,51.234375 31.2441406,51.234375 C29.3691312,51.234375 28.0703161,50.5752019 27.3476562,49.2568359 C26.8105442,48.2802686 26.5419922,46.8007912 26.5419922,44.8183594 Z M39.0058035,51 L39.0058035,28.9541016 L42.2431082,28.9541016 L42.2431082,51 L39.0058035,51 Z M46.1668804,51 L46.1668804,28.9541016 L49.0526226,28.9541016 L52.2020366,40.4384766 L52.4657085,41.4638672 L52.6414897,41.4638672 L52.6414897,28.9541016 L55.6151226,28.9541016 L55.6151226,51 L52.7293804,51 L49.5799663,39.515625 L49.3162944,38.4902344 L49.1405132,38.4902344 L49.1405132,51 L46.1668804,51 Z M58.3816682,32.2792969 L58.3816682,28.9541016 L67.7420198,28.9541016 L67.7420198,32.2792969 L64.6804963,32.2792969 L64.6804963,51 L61.4431916,51 L61.4431916,32.2792969 L58.3816682,32.2792969 Z M70.3181357,46.4736328 L70.3181357,33.4804688 C70.3474328,32.5527297 70.5232123,31.761722 70.8454795,31.1074219 C71.1482154,30.4238247 71.5681331,29.8769552 72.1052451,29.4667969 C72.7790766,28.9589818 73.618912,28.7050781 74.6247764,28.7050781 C75.6111094,28.7050781 76.4411792,28.9589818 77.1150107,29.4667969 C77.7009512,29.9062522 78.1355171,30.4531217 78.4187217,31.1074219 C78.7409889,31.761722 78.9167684,32.5527297 78.9460654,33.4804688 L78.9460654,46.4736328 C78.9167684,47.4209032 78.7409889,48.2216764 78.4187217,48.8759766 C78.1452828,49.5009797 77.7107168,50.0380837 77.1150107,50.4873047 C76.4997733,50.9853541 75.6697035,51.234375 74.6247764,51.234375 C73.5603179,51.234375 72.7204826,50.9853541 72.1052451,50.4873047 C71.5583674,50.0673807 71.1384497,49.5302767 70.8454795,48.8759766 C70.5232123,48.2216764 70.3474328,47.4209032 70.3181357,46.4736328 Z M73.5554404,46.4736328 C73.5554404,47.0498076 73.7019233,47.5087874 73.9948936,47.8505859 C74.1511443,48.0068367 74.3611032,48.0849609 74.6247764,48.0849609 C75.1325914,48.0849609 75.4548538,47.8164089 75.5915732,47.2792969 C75.6696986,47.0937491 75.7087607,46.8251971 75.7087607,46.4736328 L75.7087607,33.4804688 C75.7087607,32.904294 75.5720434,32.4453142 75.2986045,32.1035156 C75.132588,31.9374992 74.9079809,31.8544922 74.6247764,31.8544922 C74.156024,31.8544922 73.8386444,32.127927 73.6726279,32.6748047 C73.5945025,32.8798838 73.5554404,33.1484358 73.5554404,33.4804688 L73.5554404,46.4736328 Z M82.6501111,51 L82.6501111,28.9541016 L85.5358533,28.9541016 L88.6852673,40.4384766 L88.9489392,41.4638672 L89.1247205,41.4638672 L89.1247205,28.9541016 L92.0983533,28.9541016 L92.0983533,51 L89.2126111,51 L86.063197,39.515625 L85.7995251,38.4902344 L85.6237439,38.4902344 L85.6237439,51 L82.6501111,51 Z M96.007477,51 L96.007477,28.9541016 L99.2447817,28.9541016 L99.2447817,51 L96.007477,51 Z M102.260351,51 L105.600195,28.9541016 L109.555273,28.9541016 L112.880468,51 L109.731054,51 L109.130468,46.5029297 L106.010351,46.5029297 L105.424413,51 L102.260351,51 Z M106.464452,43.0751953 L108.691015,43.0751953 L107.753515,36.1171875 L107.665624,35.5458984 L107.489843,35.5458984 L107.401952,36.1171875 L106.464452,43.0751953 Z" id="SINTONIA" fill="#2B2C30"></path>
    </g>
</svg>