<?xml version="1.0" encoding="UTF-8"?>
<svg width="24px" height="24px" viewBox="0 0 24 24" version="1.1" xmlns="http://www.w3.org/2000/svg" xmlns:xlink="http://www.w3.org/1999/xlink">
    <!-- Generator: Sketch 48.2 (47327) - http://www.bohemiancoding.com/sketch -->
    <title>Fill 1</title>
    <desc>Created with Sketch.</desc>
    <defs></defs>
    <g id="Org_page" stroke="none" stroke-width="1" fill="none" fill-rule="evenodd" transform="translate(-1177.000000, -208.000000)">
        <g id="//-hero" transform="translate(141.000000, 180.000000)" fill="#FFFFFF">
            <g id="::-contacto" transform="translate(923.000000, 0.000000)">
                <g id="::-phone" transform="translate(85.000000, 0.000000)">
                    <path d="M28,47.3079983 C28,47.7043399 28.120075,48.1247023 28.3752345,48.4895168 C28.3992495,48.5255479 30.9133208,52.0460827 32.3692308,51.9995426 C36.460788,51.8704313 41.2682927,47.9055134 44.580863,44.6026662 C47.8934334,41.2998189 51.8694184,36.5046853 52,32.4091548 L52,32.3761263 C52,30.9408891 48.5148218,28.4202161 48.4803002,28.3961954 C47.5332083,27.7341247 46.4885553,27.975833 46.0667917,28.577852 C45.8071295,28.9456691 43.1354597,32.9526233 42.8337711,33.4450478 C42.7016886,33.6597328 42.6371482,33.9194567 42.6371482,34.2032013 C42.6371482,34.5695171 42.7452158,34.9748665 42.9538462,35.3727095 C43.1579737,35.7585421 43.8243902,36.9250477 44.1530957,37.4985421 C43.7973734,38.0014756 42.8893058,39.1844954 41.017636,41.0491028 C39.1609756,42.9032011 37.964728,43.8174893 37.4574109,44.173296 C36.8825516,43.8460139 35.7118199,43.1824419 35.3260788,42.9797671 C34.5981238,42.5969371 33.8731707,42.5533996 33.3838649,42.8656688 C32.921576,43.1569199 28.9320826,45.8127093 28.5523452,46.0859448 C28.193621,46.3426661 28,46.806566 28,47.3079983 M29.454409,47.3079983 C29.454409,47.2839776 29.4574109,47.2629595 29.4589118,47.2464452 C30.0727955,46.8260828 33.50394,44.5666351 34.1448405,44.1552805 C34.2123827,44.1537792 34.3834897,44.1777999 34.6281426,44.3054099 C34.8893058,44.4420277 35.6502814,44.8683952 36.7129456,45.4734168 L37.5399625,45.9433219 L38.3189493,45.3983521 C38.8998124,44.9915014 40.1606004,44.0231666 42.0787992,42.1090165 C44.0060038,40.18736 44.9756098,38.9337793 45.380863,38.3587836 L45.9272045,37.5811132 L45.4559099,36.7554014 C44.9966229,35.9552116 44.4487805,34.9898795 44.2821764,34.6746077 C44.1500938,34.4223903 44.1395872,34.2497414 44.1395872,34.2032013 L44.1395872,34.1851858 C44.4998124,33.6116914 46.8262664,30.1166786 47.2510319,29.4996466 C47.3110694,29.4891376 47.441651,29.4996466 47.6067542,29.6122437 C48.9230769,30.5625629 50.2994371,31.9092238 50.497561,32.4376794 C50.3654784,35.2450995 47.8919325,39.1844954 43.5196998,43.5442538 C39.1459662,47.9040121 35.2,50.3706384 32.3947467,50.501251 C31.8649156,50.3120879 30.5035647,48.9384038 29.5594747,47.6352804 C29.4919325,47.5376963 29.454409,47.419094 29.454409,47.3079983" id="Fill-1"></path>
                </g>
            </g>
        </g>
    </g>
</svg>