<?xml version="1.0" encoding="UTF-8"?>
<svg width="24px" height="24px" viewBox="0 0 24 24" version="1.1" xmlns="http://www.w3.org/2000/svg" xmlns:xlink="http://www.w3.org/1999/xlink">
    <!-- Generator: Sketch 48.2 (47327) - http://www.bohemiancoding.com/sketch -->
    <title>Fill 1</title>
    <desc>Created with Sketch.</desc>
    <defs></defs>
    <g id="Org-Detail-(375)" stroke="none" stroke-width="1" fill="none" fill-rule="evenodd" transform="translate(-176.000000, -812.000000)">
        <g id="//-hero" transform="translate(-38.000000, 145.000000)" fill="#3DC59F">
            <g id="::-contact" transform="translate(98.000000, 667.000000)">
                <path d="M116,19.3079983 C116,19.7043399 116.120075,20.1247023 116.375235,20.4895168 C116.39925,20.5255479 118.913321,24.0460827 120.369231,23.9995426 C124.460788,23.8704313 129.268293,19.9055134 132.580863,16.6026662 C135.893433,13.2998189 139.869418,8.50468532 140,4.40915478 L140,4.3761263 C140,2.94088906 136.514822,0.420216124 136.4803,0.396195417 C135.533208,-0.265875319 134.488555,-0.0241669552 134.066792,0.577852013 C133.807129,0.945669089 131.13546,4.95262327 130.833771,5.44504776 C130.701689,5.65973283 130.637148,5.91945673 130.637148,6.20320133 C130.637148,6.56951711 130.745216,6.97486654 130.953846,7.3727095 C131.157974,7.75854211 131.82439,8.92504769 132.153096,9.49854207 C131.797373,10.0014756 130.889306,11.1844954 129.017636,13.0491028 C127.160976,14.9032011 125.964728,15.8174893 125.457411,16.173296 C124.882552,15.8460139 123.71182,15.1824419 123.326079,14.9797671 C122.598124,14.5969371 121.873171,14.5533996 121.383865,14.8656688 C120.921576,15.1569199 116.932083,17.8127093 116.552345,18.0859448 C116.193621,18.3426661 116,18.806566 116,19.3079983 M117.454409,19.3079983 C117.454409,19.2839776 117.457411,19.2629595 117.458912,19.2464452 C118.072795,18.8260828 121.50394,16.5666351 122.144841,16.1552805 C122.212383,16.1537792 122.38349,16.1777999 122.628143,16.3054099 C122.889306,16.4420277 123.650281,16.8683952 124.712946,17.4734168 L125.539962,17.9433219 L126.318949,17.3983521 C126.899812,16.9915014 128.1606,16.0231666 130.078799,14.1090165 C132.006004,12.18736 132.97561,10.9337793 133.380863,10.3587836 L133.927205,9.58111325 L133.45591,8.75540145 C132.996623,7.95521164 132.44878,6.98987948 132.282176,6.6746077 C132.150094,6.42239028 132.139587,6.24974145 132.139587,6.20320133 L132.139587,6.1851858 C132.499812,5.61169142 134.826266,2.11667855 135.251032,1.49964664 C135.311069,1.48913758 135.441651,1.49964664 135.606754,1.61224371 C136.923077,2.56256293 138.299437,3.90922381 138.497561,4.43767937 C138.365478,7.24509949 135.891932,11.1844954 131.5197,15.5442538 C127.145966,19.9040121 123.2,22.3706384 120.394747,22.501251 C119.864916,22.3120879 118.503565,20.9384038 117.559475,19.6352804 C117.491932,19.5376963 117.454409,19.419094 117.454409,19.3079983" id="Fill-1"></path>
            </g>
        </g>
    </g>
</svg>