<?xml version="1.0" encoding="UTF-8"?>
<svg width="16px" height="16px" viewBox="0 0 16 16" version="1.1" xmlns="http://www.w3.org/2000/svg" xmlns:xlink="http://www.w3.org/1999/xlink">
    <!-- Generator: Sketch 46.2 (44496) - http://www.bohemiancoding.com/sketch -->
    <title>Fill 1</title>
    <desc>Created with Sketch.</desc>
    <defs></defs>
    <g id="Plataforma" stroke="none" stroke-width="1" fill="none" fill-rule="evenodd" opacity="0.5">
        <g id="::-platform1" transform="translate(-1225.000000, -802.000000)" fill="#FFFFFF">
            <g id="//-table" transform="translate(55.000000, 788.000000)">
                <g id="::-header">
                    <g id="::-search" transform="translate(1170.000000, 14.000000)">
                        <path d="M7,1 C3.686,1 1,3.687 1,7 C1,10.314 3.686,13 7,13 C10.313,13 13,10.314 13,7 C13,3.687 10.313,1 7,1 M7,14 C3.134,14 0,10.866 0,7 C0,3.134 3.134,0 7,0 C10.866,0 14,3.134 14,7 C14,10.866 10.866,14 7,14 M15.841,15.841 C15.642,16.042 15.318,16.042 15.118,15.841 L12.278,13.001 C12.534,12.775 12.775,12.534 13.001,12.278 L15.841,15.119 C16.041,15.318 16.041,15.642 15.841,15.841" id="Fill-1"></path>
                    </g>
                </g>
            </g>
        </g>
    </g>
</svg>