<?xml version="1.0" encoding="UTF-8"?>
<svg width="15px" height="16px" viewBox="0 0 15 16" version="1.1" xmlns="http://www.w3.org/2000/svg" xmlns:xlink="http://www.w3.org/1999/xlink">
    <!-- Generator: Sketch 50 (54983) - http://www.bohemiancoding.com/sketch -->
    <title>Fill 1</title>
    <desc>Created with Sketch.</desc>
    <defs></defs>
    <g id="Volunteering" stroke="none" stroke-width="1" fill="none" fill-rule="evenodd">
        <g id="volunteer-detail---desktop" transform="translate(-1063.000000, -337.000000)" fill="#3DC587">
            <g id="::-habilidades" transform="translate(1063.000000, 266.000000)">
                <g id="::-lista" transform="translate(0.000000, 15.000000)">
                    <g id="::-item" transform="translate(0.000000, 35.000000)">
                        <path d="M3,30 L4,30 L4,29 L3,29 L3,30 Z M2,31 L5,31 L5,28 L2,28 L2,31 Z M3,34.001 L4,34.001 L4,33 L3,33 L3,34.001 Z M2,35 L5,35 L5,32 L2,32 L2,35 Z M7,30 L8,30 L8,29 L7,29 L7,30 Z M6,31 L9,31 L9,28 L6,28 L6,31 Z M7,34.001 L8,34.001 L8,33 L7,33 L7,34.001 Z M6,35 L9,35 L9,32 L6,32 L6,35 Z M11,30 L12,30 L12,29 L11,29 L11,30 Z M10,31 L13,31 L13,28 L10,28 L10,31 Z M11,34.001 L12,34.001 L12,33 L11,33 L11,34.001 Z M10,35 L13,35 L13,32 L10,32 L10,35 Z M14,26.001 L1,26.001 L1,35.5 C1,35.777 1.224,36 1.5,36 L13.5,36 C13.776,36 14,35.777 14,35.5 L14,26.001 Z M14,23.501 C14,23.225 13.776,23 13.5,23 L11,23 L11,24.001 L10,24.001 L10,23 L5,23 L5,24.001 L4,24.001 L4,23 L1.5,23 C1.224,23 1,23.225 1,23.501 L1,25 L14,25 L14,23.501 Z M14,37 L1,37 C0.447,37 0,36.553 0,36 L0,26.001 L0,25 L0,23 C0,22.448 0.447,22 1,22 L4,22 L4,21 L5,21 L5,22 L10,22 L10,21 L11,21 L11,22 L14.5,22 C15.052,22 15,22.448 15,23 L15,25 L15,26.001 L15,36 C15,36.553 14.552,37 14,37 Z" id="Fill-1"></path>
                    </g>
                </g>
            </g>
        </g>
    </g>
</svg>