<?xml version="1.0" encoding="UTF-8"?>
<svg width="16px" height="16px" viewBox="0 0 16 16" version="1.1" xmlns="http://www.w3.org/2000/svg" xmlns:xlink="http://www.w3.org/1999/xlink">
    <!-- Generator: Sketch 50 (54983) - http://www.bohemiancoding.com/sketch -->
    <title>Fill 1</title>
    <desc>Created with Sketch.</desc>
    <defs></defs>
    <g id="Volunteering" stroke="none" stroke-width="1" fill="none" fill-rule="evenodd">
        <g id="volunteer-detail---desktop" transform="translate(-1063.000000, -374.000000)" fill="#3DC587">
            <g id="::-habilidades" transform="translate(1063.000000, 266.000000)">
                <g id="::-lista" transform="translate(0.000000, 15.000000)">
                    <g id="::-item" transform="translate(0.000000, 71.000000)">
                        <path d="M3.5,32 C3.224,32 3,32.225 3,32.501 C3,32.776 3.224,33 3.5,33 C3.775,33 4,32.776 4,32.501 C4,32.225 3.775,32 3.5,32 Z M3.5,34 C2.672,34 2,33.329 2,32.501 C2,31.672 2.672,31 3.5,31 C4.328,31 5,31.672 5,32.501 C5,33.329 4.328,34 3.5,34 Z M12.5,32 C12.224,32 12,32.225 12,32.501 C12,32.776 12.224,33 12.5,33 C12.775,33 13,32.776 13,32.501 C13,32.225 12.775,32 12.5,32 Z M12.5,34 C11.672,34 11,33.329 11,32.501 C11,31.672 11.672,31 12.5,31 C13.328,31 14,31.672 14,32.501 C14,33.329 13.328,34 12.5,34 Z M15,34.002 L14.999,34.002 L15,34 L15,31 C15,30.448 14.552,30 14,30 L2,30 C1.447,30 1,30.448 1,31 L1,34 L1,34.002 L1,35.002 L1.75,35.002 L1.75,34.966 C1.83,34.986 1.913,35 2,35 L14,35 C14.087,35 14.169,34.986 14.25,34.966 L14.25,35.002 L15,35.002 L15,34.002 Z M13,25 C13,23.896 12.104,23 11,23 L5,23 C3.895,23 3,23.896 3,25 L2.199,29 L13.8,29 L13,25 Z M15,36 L15,37.5 C15,37.777 14.775,38.001 14.5,38.001 C14.224,38.001 14,37.777 14,37.5 L14,36 L2,36 L2,37.5 C2,37.777 1.775,38.001 1.5,38.001 C1.224,38.001 1,37.777 1,37.5 L1,36 L0,36 L0,34 L0,31 C0,30.196 0.478,29.508 1.162,29.189 L2,25 C2,23.344 3.343,22 5,22 L11,22 C12.656,22 14,23.344 14,25 L14.838,29.189 C15.522,29.508 16,30.196 16,31 L16,34 L16,36 L15,36 Z" id="Fill-1"></path>
                    </g>
                </g>
            </g>
        </g>
    </g>
</svg>