<?xml version="1.0" encoding="UTF-8"?>
<svg width="24px" height="24px" viewBox="0 0 24 24" version="1.1" xmlns="http://www.w3.org/2000/svg" xmlns:xlink="http://www.w3.org/1999/xlink">
    <!-- Generator: Sketch 48.2 (47327) - http://www.bohemiancoding.com/sketch -->
    <title>Shape</title>
    <desc>Created with Sketch.</desc>
    <defs></defs>
    <g id="Org_page" stroke="none" stroke-width="1" fill="none" fill-rule="evenodd" transform="translate(-1092.000000, -208.000000)">
        <g id="//-hero" transform="translate(141.000000, 180.000000)" fill="#FFFFFF" fill-rule="nonzero">
            <g id="::-contacto" transform="translate(923.000000, 0.000000)">
                <g id="::-web-(hover)">
                    <path d="M40.0837209,28 C40.055814,28 40.055814,28 40.027907,28 C40.027907,28 40,28 40,28 C40,28 40,28 40,28 C40,28 40,28 40,28 C33.3860465,28 28,33.3860465 28,40 C28,46.6139535 33.3860465,52 40,52 C40,52 40,52 40,52 C40,52 40,52 40,52 C40,52 40.027907,52 40.027907,52 C40.055814,52 40.055814,52 40.0837209,52 C46.6697674,51.944186 52,46.5860465 52,40 C52,33.4139535 46.6697674,28.027907 40.0837209,28 Z M48.5674419,33.2744186 L45.8604651,33.2744186 C45.3023256,31.8511628 44.6046512,30.6790698 43.7395349,29.7860465 C45.6651163,30.4837209 47.3116279,31.7116279 48.5674419,33.2744186 Z M29.1162791,40.5302326 L33.0232558,40.5302326 C33.0790698,42.344186 33.3302326,44.0465116 33.7767442,45.5534884 L30.6511628,45.5534884 C29.7581395,44.0744186 29.227907,42.372093 29.1162791,40.5302326 Z M40.5860465,33.2744186 L40.5860465,29.172093 C42.2046512,29.4511628 43.655814,31.0139535 44.6325581,33.2744186 L40.5860465,33.2744186 Z M45.0511628,34.3906977 C45.5534884,35.8697674 45.8604651,37.6 45.9162791,39.4139535 L40.5860465,39.4139535 L40.5860465,34.3906977 L45.0511628,34.3906977 Z M39.4697674,29.172093 L39.4697674,33.2744186 L35.4232558,33.2744186 C36.4,31.0139535 37.8511628,29.4511628 39.4697674,29.172093 Z M39.4697674,34.3906977 L39.4697674,39.4139535 L34.1395349,39.4139535 C34.1953488,37.6 34.5023256,35.8697674 35.0046512,34.3906977 L39.4697674,34.3906977 Z M33.0232558,39.4139535 L29.1162791,39.4139535 C29.2,37.572093 29.7581395,35.8697674 30.6511628,34.3906977 L33.7767442,34.3906977 C33.3302326,35.8976744 33.0511628,37.6 33.0232558,39.4139535 Z M34.1395349,40.5302326 L39.4697674,40.5302326 L39.4697674,45.5534884 L34.9767442,45.5534884 C34.4744186,44.0744186 34.1674419,42.344186 34.1395349,40.5302326 Z M39.4697674,46.6697674 L39.4697674,50.827907 C37.8511628,50.5488372 36.4,48.9581395 35.3953488,46.6697674 L39.4697674,46.6697674 Z M40.5860465,50.827907 L40.5860465,46.6697674 L44.6604651,46.6697674 C43.655814,48.9581395 42.2046512,50.5488372 40.5860465,50.827907 Z M40.5860465,45.5534884 L40.5860465,40.5302326 L45.9162791,40.5302326 C45.8604651,42.344186 45.5534884,44.0744186 45.0790698,45.5534884 L40.5860465,45.5534884 Z M47.0046512,40.5302326 L50.8837209,40.5302326 C50.8,42.372093 50.2418605,44.0744186 49.3767442,45.5534884 L46.2511628,45.5534884 C46.6976744,44.0465116 46.9767442,42.344186 47.0046512,40.5302326 Z M47.0046512,39.4139535 C46.9767442,37.6 46.6976744,35.8976744 46.2511628,34.3906977 L49.3488372,34.3906977 C50.2418605,35.8697674 50.8,37.572093 50.8837209,39.4139535 L47.0046512,39.4139535 Z M36.2883721,29.7581395 C35.4511628,30.6511628 34.7255814,31.8511628 34.1674419,33.2744186 L31.4325581,33.2744186 C32.6883721,31.6837209 34.3627907,30.455814 36.2883721,29.7581395 Z M31.4046512,46.6697674 L34.1395349,46.6697674 C34.6976744,48.1209302 35.4232558,49.3209302 36.2883721,50.2418605 C34.3627907,49.5162791 32.6604651,48.2883721 31.4046512,46.6697674 Z M43.7395349,50.2139535 C44.6046512,49.3209302 45.3302326,48.0930233 45.8604651,46.6697674 L48.5674419,46.6697674 C47.3395349,48.2604651 45.6651163,49.5162791 43.7395349,50.2139535 Z" id="Shape"></path>
                </g>
            </g>
        </g>
    </g>
</svg>