<?xml version="1.0" encoding="UTF-8"?>
<svg width="24px" height="24px" viewBox="0 0 24 24" version="1.1" xmlns="http://www.w3.org/2000/svg" xmlns:xlink="http://www.w3.org/1999/xlink">
    <!-- Generator: Sketch 48.2 (47327) - http://www.bohemiancoding.com/sketch -->
    <title>Shape</title>
    <desc>Created with Sketch.</desc>
    <defs></defs>
    <g id="Org-Detail-(375)" stroke="none" stroke-width="1" fill="none" fill-rule="evenodd" transform="translate(-86.000000, -812.000000)">
        <g id="//-hero" transform="translate(-38.000000, 145.000000)" fill="#3DC59F" fill-rule="nonzero">
            <g id="::-contact" transform="translate(98.000000, 667.000000)">
                <path d="M38.0837209,0 C38.055814,0 38.055814,0 38.027907,0 C38.027907,0 38,0 38,0 C38,0 38,0 38,0 C38,0 38,0 38,0 C31.3860465,0 26,5.38604651 26,12 C26,18.6139535 31.3860465,24 38,24 C38,24 38,24 38,24 C38,24 38,24 38,24 C38,24 38.027907,24 38.027907,24 C38.055814,24 38.055814,24 38.0837209,24 C44.6697674,23.944186 50,18.5860465 50,12 C50,5.41395349 44.6697674,0.0279069767 38.0837209,0 Z M46.5674419,5.2744186 L43.8604651,5.2744186 C43.3023256,3.85116279 42.6046512,2.67906977 41.7395349,1.78604651 C43.6651163,2.48372093 45.3116279,3.71162791 46.5674419,5.2744186 Z M27.1162791,12.5302326 L31.0232558,12.5302326 C31.0790698,14.344186 31.3302326,16.0465116 31.7767442,17.5534884 L28.6511628,17.5534884 C27.7581395,16.0744186 27.227907,14.372093 27.1162791,12.5302326 Z M38.5860465,5.2744186 L38.5860465,1.17209302 C40.2046512,1.45116279 41.655814,3.01395349 42.6325581,5.2744186 L38.5860465,5.2744186 Z M43.0511628,6.39069767 C43.5534884,7.86976744 43.8604651,9.6 43.9162791,11.4139535 L38.5860465,11.4139535 L38.5860465,6.39069767 L43.0511628,6.39069767 Z M37.4697674,1.17209302 L37.4697674,5.2744186 L33.4232558,5.2744186 C34.4,3.01395349 35.8511628,1.45116279 37.4697674,1.17209302 Z M37.4697674,6.39069767 L37.4697674,11.4139535 L32.1395349,11.4139535 C32.1953488,9.6 32.5023256,7.86976744 33.0046512,6.39069767 L37.4697674,6.39069767 Z M31.0232558,11.4139535 L27.1162791,11.4139535 C27.2,9.57209302 27.7581395,7.86976744 28.6511628,6.39069767 L31.7767442,6.39069767 C31.3302326,7.89767442 31.0511628,9.6 31.0232558,11.4139535 Z M32.1395349,12.5302326 L37.4697674,12.5302326 L37.4697674,17.5534884 L32.9767442,17.5534884 C32.4744186,16.0744186 32.1674419,14.344186 32.1395349,12.5302326 Z M37.4697674,18.6697674 L37.4697674,22.827907 C35.8511628,22.5488372 34.4,20.9581395 33.3953488,18.6697674 L37.4697674,18.6697674 Z M38.5860465,22.827907 L38.5860465,18.6697674 L42.6604651,18.6697674 C41.655814,20.9581395 40.2046512,22.5488372 38.5860465,22.827907 Z M38.5860465,17.5534884 L38.5860465,12.5302326 L43.9162791,12.5302326 C43.8604651,14.344186 43.5534884,16.0744186 43.0790698,17.5534884 L38.5860465,17.5534884 Z M45.0046512,12.5302326 L48.8837209,12.5302326 C48.8,14.372093 48.2418605,16.0744186 47.3767442,17.5534884 L44.2511628,17.5534884 C44.6976744,16.0465116 44.9767442,14.344186 45.0046512,12.5302326 Z M45.0046512,11.4139535 C44.9767442,9.6 44.6976744,7.89767442 44.2511628,6.39069767 L47.3488372,6.39069767 C48.2418605,7.86976744 48.8,9.57209302 48.8837209,11.4139535 L45.0046512,11.4139535 Z M34.2883721,1.75813953 C33.4511628,2.65116279 32.7255814,3.85116279 32.1674419,5.2744186 L29.4325581,5.2744186 C30.6883721,3.68372093 32.3627907,2.45581395 34.2883721,1.75813953 Z M29.4046512,18.6697674 L32.1395349,18.6697674 C32.6976744,20.1209302 33.4232558,21.3209302 34.2883721,22.2418605 C32.3627907,21.5162791 30.6604651,20.2883721 29.4046512,18.6697674 Z M41.7395349,22.2139535 C42.6046512,21.3209302 43.3302326,20.0930233 43.8604651,18.6697674 L46.5674419,18.6697674 C45.3395349,20.2604651 43.6651163,21.5162791 41.7395349,22.2139535 Z" id="Shape"></path>
            </g>
        </g>
    </g>
</svg>